<?xml version="1.0" encoding="UTF-8"?>
<!DOCTYPE svg PUBLIC "-//W3C//DTD SVG 1.1//EN" "http://www.w3.org/Graphics/SVG/1.1/DTD/svg11.dtd">
<svg xmlns="http://www.w3.org/2000/svg" version="1.1" width="48px" height="48px" style="shape-rendering:geometricPrecision; text-rendering:geometricPrecision; image-rendering:optimizeQuality; fill-rule:evenodd; clip-rule:evenodd" xmlns:xlink="http://www.w3.org/1999/xlink">
<g><path style="opacity:0.862" fill="#fefffe" d="M 47.5,21.5 C 47.5,22.8333 47.5,24.1667 47.5,25.5C 45.0365,27.4611 42.7032,29.6278 40.5,32C 39.552,32.4828 38.552,32.6495 37.5,32.5C 38.0913,29.3864 39.758,26.8864 42.5,25C 39.5184,24.502 36.5184,24.3354 33.5,24.5C 33.6662,30.5092 33.4995,36.5092 33,42.5C 32.5,43 32,43.5 31.5,44C 23.8333,44.6667 16.1667,44.6667 8.5,44C 8,43.5 7.5,43 7,42.5C 6.33333,29.8333 6.33333,17.1667 7,4.5C 7.5,4 8,3.5 8.5,3C 16.1667,2.33333 23.8333,2.33333 31.5,3C 32,3.5 32.5,4 33,4.5C 33.8295,9.86433 33.6628,15.1977 32.5,20.5C 31.6725,16.2044 31.1725,11.8711 31,7.5C 30.6924,6.69194 30.1924,6.02527 29.5,5.5C 23.1667,4.16667 16.8333,4.16667 10.5,5.5C 9.80762,6.02527 9.30762,6.69194 9,7.5C 8.18947,18.5466 8.35613,29.5466 9.5,40.5C 10.0253,41.1924 10.6919,41.6924 11.5,42C 17.5522,42.7903 23.5522,42.6236 29.5,41.5C 30.1924,40.9747 30.6924,40.3081 31,39.5C 31.4993,34.5111 31.6659,29.5111 31.5,24.5C 28.7531,24.8134 26.0865,24.48 23.5,23.5C 29.8072,22.6694 36.1406,22.1694 42.5,22C 39.758,20.1136 38.0913,17.6136 37.5,14.5C 38.552,14.3505 39.552,14.5172 40.5,15C 42.7032,17.3722 45.0365,19.5389 47.5,21.5 Z"/></g>
</svg>
