<?xml version="1.0" encoding="UTF-8"?>
<!DOCTYPE svg PUBLIC "-//W3C//DTD SVG 1.1//EN" "http://www.w3.org/Graphics/SVG/1.1/DTD/svg11.dtd">
<svg xmlns="http://www.w3.org/2000/svg" version="1.1" width="476px" height="525px" style="shape-rendering:geometricPrecision; text-rendering:geometricPrecision; image-rendering:optimizeQuality; fill-rule:evenodd; clip-rule:evenodd" xmlns:xlink="http://www.w3.org/1999/xlink">
<g><path style="opacity:1" fill="#eb7b9c" d="M 248.5,7.5 C 243.787,3.04072 238.121,1.37405 231.5,2.5C 235.618,0.0606882 239.952,-0.105979 244.5,2C 246.464,3.45095 247.797,5.28428 248.5,7.5 Z"/></g>
<g><path style="opacity:1" fill="#f9236b" d="M 231.5,2.5 C 238.121,1.37405 243.787,3.04072 248.5,7.5C 249.404,8.20895 249.737,9.20895 249.5,10.5C 250.188,16.6529 248.855,22.3196 245.5,27.5C 244.526,29.7427 244.192,32.076 244.5,34.5C 244.068,35.7095 243.401,36.7095 242.5,37.5C 242.44,36.9569 242.107,36.6236 241.5,36.5C 239.578,42.2073 237.578,47.2073 235.5,51.5C 235.018,44.9563 233.852,38.623 232,32.5C 231.667,32.8333 231.333,33.1667 231,33.5C 230.925,31.065 230.092,30.3984 228.5,31.5C 228.5,31.1667 228.5,30.8333 228.5,30.5C 227.423,25.4537 226.089,20.4537 224.5,15.5C 225,13.5 225.5,11.5 226,9.5C 228.333,7.46876 230.167,5.13543 231.5,2.5 Z"/></g>
<g><path style="opacity:1" fill="#e8648c" d="M 231.5,2.5 C 230.167,5.13543 228.333,7.46876 226,9.5C 225.5,11.5 225,13.5 224.5,15.5C 226.089,20.4537 227.423,25.4537 228.5,30.5C 223.416,23.0861 222.416,15.0861 225.5,6.5C 227.264,4.72239 229.264,3.38905 231.5,2.5 Z"/></g>
<g><path style="opacity:1" fill="#ef7c9d" d="M 249.5,10.5 C 251.2,19.0994 249.534,27.0994 244.5,34.5C 244.192,32.076 244.526,29.7427 245.5,27.5C 248.855,22.3196 250.188,16.6529 249.5,10.5 Z"/></g>
<g><path style="opacity:1" fill="#ea6189" d="M 242.5,37.5 C 241.339,41.8259 240.172,46.1593 239,50.5C 238.5,61.1615 238.333,71.8281 238.5,82.5C 237.5,82.5 236.5,82.5 235.5,82.5C 234.785,68.4679 233.618,54.4679 232,40.5C 230.729,37.5156 229.562,34.5156 228.5,31.5C 230.092,30.3984 230.925,31.065 231,33.5C 231.333,33.1667 231.667,32.8333 232,32.5C 233.852,38.623 235.018,44.9563 235.5,51.5C 237.578,47.2073 239.578,42.2073 241.5,36.5C 242.107,36.6236 242.44,36.9569 242.5,37.5 Z"/></g>
<g><path style="opacity:1" fill="#e95e88" d="M 91.5,78.5 C 89.042,76.8811 86.7087,75.0478 84.5,73C 81.1832,72.5017 77.8499,72.335 74.5,72.5C 77.6286,69.1138 81.2953,68.6138 85.5,71C 88.1177,73.1057 90.1177,75.6057 91.5,78.5 Z"/></g>
<g><path style="opacity:1" fill="#e34a3c" d="M 400.5,73.5 C 395.477,72.3097 390.477,72.3097 385.5,73.5C 390.542,68.1803 395.542,68.1803 400.5,73.5 Z"/></g>
<g><path style="opacity:1" fill="#e75e4f" d="M 385.5,73.5 C 383.15,77.6275 380.816,81.6275 378.5,85.5C 379.355,80.5605 381.689,76.5605 385.5,73.5 Z"/></g>
<g><path style="opacity:1" fill="#f82f6f" d="M 74.5,72.5 C 77.8499,72.335 81.1832,72.5017 84.5,73C 86.7087,75.0478 89.042,76.8811 91.5,78.5C 91.6917,81.6008 92.3584,84.6008 93.5,87.5C 92.9747,88.1924 92.3081,88.6924 91.5,89C 93.3762,90.8626 95.5428,92.3626 98,93.5C 98.4828,94.448 98.6495,95.448 98.5,96.5C 96.4352,96.4828 94.4352,96.1495 92.5,95.5C 85.033,93.5173 78.533,89.8506 73,84.5C 69.4329,79.8644 69.9329,75.8644 74.5,72.5 Z"/></g>
<g><path style="opacity:1" fill="#e95947" d="M 400.5,73.5 C 402.088,75.5273 402.588,77.8606 402,80.5C 400.641,84.0066 398.474,86.6733 395.5,88.5C 395.5,87.1667 395.5,85.8333 395.5,84.5C 396.5,84.5 397.5,84.5 398.5,84.5C 399.167,80.8333 399.833,77.1667 400.5,73.5 Z"/></g>
<g><path style="opacity:1" fill="#f4180d" d="M 400.5,73.5 C 399.833,77.1667 399.167,80.8333 398.5,84.5C 397.5,84.5 396.5,84.5 395.5,84.5C 395.5,85.8333 395.5,87.1667 395.5,88.5C 393.833,88.5 392.167,88.5 390.5,88.5C 390.5,89.5 390.5,90.5 390.5,91.5C 387.873,93.6007 384.873,94.9341 381.5,95.5C 381.44,94.9569 381.107,94.6236 380.5,94.5C 379.026,96.1487 377.193,97.1487 375,97.5C 373.97,97.1639 373.47,96.4972 373.5,95.5C 373.5,94.8333 373.5,94.1667 373.5,93.5C 375.181,90.7972 376.847,88.1305 378.5,85.5C 380.816,81.6275 383.15,77.6275 385.5,73.5C 390.477,72.3097 395.477,72.3097 400.5,73.5 Z"/></g>
<g><path style="opacity:1" fill="#e85c4b" d="M 395.5,88.5 C 394.232,90.047 392.565,91.047 390.5,91.5C 390.5,90.5 390.5,89.5 390.5,88.5C 392.167,88.5 393.833,88.5 395.5,88.5 Z"/></g>
<g><path style="opacity:0.427" fill="#f6a1a0" d="M 373.5,93.5 C 373.5,94.1667 373.5,94.8333 373.5,95.5C 372.833,95.8333 372.167,96.1667 371.5,96.5C 371.427,94.9731 372.094,93.9731 373.5,93.5 Z"/></g>
<g><path style="opacity:1" fill="#ee4e7d" d="M 91.5,78.5 C 94.7594,85.0871 98.426,91.4204 102.5,97.5C 102.5,98.5 102.5,99.5 102.5,100.5C 101.5,100.5 100.5,100.5 99.5,100.5C 96.9528,99.0664 94.6195,97.3998 92.5,95.5C 94.4352,96.1495 96.4352,96.4828 98.5,96.5C 98.6495,95.448 98.4828,94.448 98,93.5C 95.5428,92.3626 93.3762,90.8626 91.5,89C 92.3081,88.6924 92.9747,88.1924 93.5,87.5C 92.3584,84.6008 91.6917,81.6008 91.5,78.5 Z"/></g>
<g><path style="opacity:1" fill="#e84a3a" d="M 381.5,95.5 C 376.858,99.136 372.191,102.803 367.5,106.5C 365.824,105.817 365.157,104.483 365.5,102.5C 367.139,100.194 369.139,98.1939 371.5,96.5C 372.167,96.1667 372.833,95.8333 373.5,95.5C 373.47,96.4972 373.97,97.1639 375,97.5C 377.193,97.1487 379.026,96.1487 380.5,94.5C 381.107,94.6236 381.44,94.9569 381.5,95.5 Z"/></g>
<g><path style="opacity:0.522" fill="#f991b6" d="M 248.5,112.5 C 238.148,112.399 227.815,112.733 217.5,113.5C 223.601,112.028 229.935,111.361 236.5,111.5C 240.681,111.501 244.681,111.834 248.5,112.5 Z"/></g>
<g><path style="opacity:1" fill="#e27295" d="M 102.5,97.5 C 107.812,103.146 113.145,108.813 118.5,114.5C 119.833,115.5 119.833,116.5 118.5,117.5C 111.823,112.153 105.49,106.486 99.5,100.5C 100.5,100.5 101.5,100.5 102.5,100.5C 102.5,99.5 102.5,98.5 102.5,97.5 Z"/></g>
<g><path style="opacity:1" fill="#eb6f94" d="M 249.5,112.5 C 253.733,112.539 257.733,113.205 261.5,114.5C 257.818,114.665 254.152,114.499 250.5,114C 249.944,113.617 249.611,113.117 249.5,112.5 Z"/></g>
<g><path style="opacity:1" fill="#db5b50" d="M 365.5,102.5 C 365.157,104.483 365.824,105.817 367.5,106.5C 363.176,110.324 359.009,114.324 355,118.5C 354.333,117.167 354.333,115.833 355,114.5C 358.365,110.307 361.865,106.307 365.5,102.5 Z"/></g>
<g><path style="opacity:1" fill="#f9236b" d="M 248.5,112.5 C 248.833,112.5 249.167,112.5 249.5,112.5C 249.611,113.117 249.944,113.617 250.5,114C 254.152,114.499 257.818,114.665 261.5,114.5C 270.823,118.312 280.489,121.312 290.5,123.5C 293.648,124.576 296.648,125.909 299.5,127.5C 299.709,128.922 300.209,130.255 301,131.5C 301.333,131.167 301.667,130.833 302,130.5C 304.149,131.652 305.982,133.152 307.5,135C 303.179,135.499 298.846,135.666 294.5,135.5C 294.167,135.5 293.833,135.5 293.5,135.5C 291.708,134.691 289.708,134.191 287.5,134C 272.797,133.341 258.13,133.841 243.5,135.5C 240.783,135.974 238.45,136.974 236.5,138.5C 236.167,138.5 235.833,138.5 235.5,138.5C 231.445,138.176 227.445,138.509 223.5,139.5C 219.888,141.809 215.888,142.976 211.5,143C 210.177,143.816 209.511,144.983 209.5,146.5C 209.167,146.5 208.833,146.5 208.5,146.5C 202.84,147.995 197.173,149.495 191.5,151C 191.833,151.333 192.167,151.667 192.5,152C 189.119,152.553 186.785,154.386 185.5,157.5C 185.167,157.5 184.833,157.5 184.5,157.5C 183.432,156.566 182.099,156.232 180.5,156.5C 180.649,157.552 180.483,158.552 180,159.5C 176.766,158.536 174.933,159.869 174.5,163.5C 174.5,164.167 174.167,164.5 173.5,164.5C 170.455,164.508 167.455,164.841 164.5,165.5C 164.307,169.449 163.807,169.449 163,165.5C 161.097,167.441 160.264,169.774 160.5,172.5C 159.167,172.5 157.833,172.5 156.5,172.5C 156.404,176.311 155.738,176.311 154.5,172.5C 153.571,173.689 153.238,175.022 153.5,176.5C 148.823,175.912 147.156,177.579 148.5,181.5C 147.178,181.67 146.011,181.337 145,180.5C 144.51,181.793 144.343,183.127 144.5,184.5C 143.167,184.5 141.833,184.5 140.5,184.5C 140.5,185.5 140.5,186.5 140.5,187.5C 139.127,187.343 137.793,187.51 136.5,188C 135.167,188.667 135.167,189.333 136.5,190C 134.414,190.315 132.414,190.815 130.5,191.5C 127.697,190.23 125.697,191.23 124.5,194.5C 121.96,193.356 120.626,191.356 120.5,188.5C 123.264,183.488 125.931,178.488 128.5,173.5C 132.102,173.494 134.102,171.66 134.5,168C 136.112,167.28 137.612,167.446 139,168.5C 139.499,165.978 139.332,163.478 138.5,161C 138.954,159.061 139.621,157.228 140.5,155.5C 142.044,155.297 143.378,154.63 144.5,153.5C 146.271,154.035 146.604,154.869 145.5,156C 147.089,157.543 148.423,157.543 149.5,156C 148.33,154.413 147.33,152.747 146.5,151C 151.377,147.624 155.377,143.457 158.5,138.5C 159.873,138.657 161.207,138.49 162.5,138C 164.624,135.09 167.291,134.257 170.5,135.5C 172.762,134.655 173.429,133.322 172.5,131.5C 173.325,130.614 174.325,130.281 175.5,130.5C 175.5,129.5 175.5,128.5 175.5,127.5C 178.698,124.875 182.365,123.209 186.5,122.5C 190.048,121.241 193.715,120.407 197.5,120C 199.993,118.581 202.326,117.081 204.5,115.5C 208.743,114.319 213.076,113.652 217.5,113.5C 227.815,112.733 238.148,112.399 248.5,112.5 Z"/></g>
<g><path style="opacity:1" fill="#e8638b" d="M 204.5,115.5 C 202.326,117.081 199.993,118.581 197.5,120C 193.715,120.407 190.048,121.241 186.5,122.5C 188.121,120.883 190.121,119.716 192.5,119C 196.547,117.928 200.547,116.761 204.5,115.5 Z"/></g>
<g><path style="opacity:1" fill="#ea6c92" d="M 261.5,114.5 C 271.684,116.119 281.351,119.119 290.5,123.5C 280.489,121.312 270.823,118.312 261.5,114.5 Z"/></g>
<g><path style="opacity:1" fill="#f14678" d="M 175.5,127.5 C 175.5,128.5 175.5,129.5 175.5,130.5C 174.325,130.281 173.325,130.614 172.5,131.5C 173.429,133.322 172.762,134.655 170.5,135.5C 167.291,134.257 164.624,135.09 162.5,138C 161.207,138.49 159.873,138.657 158.5,138.5C 163.354,133.659 169.02,129.993 175.5,127.5 Z"/></g>
<g><path style="opacity:1" fill="#e6658c" d="M 293.5,135.5 C 274.373,134.027 255.373,135.027 236.5,138.5C 238.45,136.974 240.783,135.974 243.5,135.5C 258.13,133.841 272.797,133.341 287.5,134C 289.708,134.191 291.708,134.691 293.5,135.5 Z"/></g>
<g><path style="opacity:1" fill="#e4638a" d="M 299.5,127.5 C 305.024,130.092 310.024,133.425 314.5,137.5C 313.833,137.833 313.167,138.167 312.5,138.5C 306.378,137.364 300.378,136.364 294.5,135.5C 298.846,135.666 303.179,135.499 307.5,135C 305.982,133.152 304.149,131.652 302,130.5C 301.667,130.833 301.333,131.167 301,131.5C 300.209,130.255 299.709,128.922 299.5,127.5 Z"/></g>
<g><path style="opacity:1" fill="#eb5f89" d="M 235.5,138.5 C 226.869,140.93 218.203,143.597 209.5,146.5C 209.511,144.983 210.177,143.816 211.5,143C 215.888,142.976 219.888,141.809 223.5,139.5C 227.445,138.509 231.445,138.176 235.5,138.5 Z"/></g>
<g><path style="opacity:1" fill="#e15e57" d="M 262.5,141.5 C 258.081,142.972 253.414,143.638 248.5,143.5C 252.919,142.028 257.586,141.362 262.5,141.5 Z"/></g>
<g><path style="opacity:1" fill="#f80904" d="M 295.5,141.5 C 295.918,142.222 296.584,142.722 297.5,143C 304.446,144.35 311.446,145.183 318.5,145.5C 321.341,145.56 324.007,146.226 326.5,147.5C 327.326,149.264 328.659,150.598 330.5,151.5C 331.219,153.764 331.552,156.097 331.5,158.5C 334.606,158.936 337.273,160.269 339.5,162.5C 339.738,164.404 340.738,165.738 342.5,166.5C 343.338,166.842 343.672,167.508 343.5,168.5C 343.427,170.027 344.094,171.027 345.5,171.5C 345.536,175.2 347.203,177.867 350.5,179.5C 350.241,181.989 351.241,183.656 353.5,184.5C 353.5,185.5 353.5,186.5 353.5,187.5C 352.5,187.5 351.5,187.5 350.5,187.5C 346.875,184.89 343.208,182.223 339.5,179.5C 338.446,179.68 337.446,180.013 336.5,180.5C 333.243,179.449 329.91,178.782 326.5,178.5C 324.884,177.011 322.884,176.011 320.5,175.5C 317.914,174.52 315.247,174.187 312.5,174.5C 312.167,174.5 311.833,174.5 311.5,174.5C 311.196,173.85 310.863,173.183 310.5,172.5C 311.908,171.757 313.241,170.923 314.5,170C 313.216,169.316 312.049,169.483 311,170.5C 310.549,168.071 309.715,167.904 308.5,170C 306,170.167 303.5,170.333 301,170.5C 291.89,169.006 282.723,168.339 273.5,168.5C 272.5,168.5 271.5,168.5 270.5,168.5C 270.389,167.883 270.056,167.383 269.5,167C 266.518,166.502 263.518,166.335 260.5,166.5C 260.826,162.116 260.492,157.783 259.5,153.5C 245.878,152.684 232.212,152.184 218.5,152C 220.432,150.541 222.432,149.375 224.5,148.5C 224.833,148.5 225.167,148.5 225.5,148.5C 228.152,148.59 230.485,147.924 232.5,146.5C 238.184,146.739 243.518,145.739 248.5,143.5C 253.414,143.638 258.081,142.972 262.5,141.5C 273.486,140.249 284.486,140.249 295.5,141.5 Z"/></g>
<g><path style="opacity:1" fill="#de4438" d="M 248.5,143.5 C 243.518,145.739 238.184,146.739 232.5,146.5C 237.482,144.261 242.816,143.261 248.5,143.5 Z"/></g>
<g><path style="opacity:1" fill="#e05e54" d="M 295.5,141.5 C 303.398,142.273 311.065,143.606 318.5,145.5C 311.446,145.183 304.446,144.35 297.5,143C 296.584,142.722 295.918,142.222 295.5,141.5 Z"/></g>
<g><path style="opacity:1" fill="#e7655c" d="M 232.5,146.5 C 230.485,147.924 228.152,148.59 225.5,148.5C 227.515,147.076 229.848,146.41 232.5,146.5 Z"/></g>
<g><path style="opacity:0.937" fill="#f49995" d="M 326.5,147.5 C 328.773,147.957 330.106,149.29 330.5,151.5C 328.659,150.598 327.326,149.264 326.5,147.5 Z"/></g>
<g><path style="opacity:1" fill="#ee6e93" d="M 208.5,146.5 C 200.802,149.963 193.136,153.629 185.5,157.5C 186.785,154.386 189.119,152.553 192.5,152C 192.167,151.667 191.833,151.333 191.5,151C 197.173,149.495 202.84,147.995 208.5,146.5 Z"/></g>
<g><path style="opacity:1" fill="#e3493c" d="M 224.5,148.5 C 222.432,149.375 220.432,150.541 218.5,152C 232.212,152.184 245.878,152.684 259.5,153.5C 260.492,157.783 260.826,162.116 260.5,166.5C 263.518,166.335 266.518,166.502 269.5,167C 270.056,167.383 270.389,167.883 270.5,168.5C 266.466,168.495 262.466,168.162 258.5,167.5C 258.241,163.76 258.574,160.094 259.5,156.5C 258.91,155.201 257.91,154.368 256.5,154C 247.506,153.5 238.506,153.334 229.5,153.5C 224.381,152.897 219.715,153.564 215.5,155.5C 214.569,157.033 213.902,158.7 213.5,160.5C 214.734,164.386 214.734,168.219 213.5,172C 204.735,173.858 196.068,176.025 187.5,178.5C 190.184,175.914 193.517,174.247 197.5,173.5C 202.68,172.918 207.68,171.918 212.5,170.5C 212.5,165.167 212.5,159.833 212.5,154.5C 209.833,154.833 207.167,155.167 204.5,155.5C 205.6,154.442 206.934,153.608 208.5,153C 213.773,151.192 219.106,149.692 224.5,148.5 Z"/></g>
<g><path style="opacity:0.376" fill="#f69c95" d="M 229.5,153.5 C 224.936,154.216 220.269,154.883 215.5,155.5C 219.715,153.564 224.381,152.897 229.5,153.5 Z"/></g>
<g><path style="opacity:1" fill="#ee4d7c" d="M 158.5,138.5 C 155.377,143.457 151.377,147.624 146.5,151C 147.33,152.747 148.33,154.413 149.5,156C 148.423,157.543 147.089,157.543 145.5,156C 146.604,154.869 146.271,154.035 144.5,153.5C 143.378,154.63 142.044,155.297 140.5,155.5C 145.213,148.454 151.213,142.787 158.5,138.5 Z"/></g>
<g><path style="opacity:1" fill="#e73d2f" d="M 330.5,151.5 C 334.25,154.58 337.25,158.247 339.5,162.5C 337.273,160.269 334.606,158.936 331.5,158.5C 331.552,156.097 331.219,153.764 330.5,151.5 Z"/></g>
<g><path style="opacity:1" fill="#f05f88" d="M 184.5,157.5 C 181.534,159.988 178.201,161.988 174.5,163.5C 174.933,159.869 176.766,158.536 180,159.5C 180.483,158.552 180.649,157.552 180.5,156.5C 182.099,156.232 183.432,156.566 184.5,157.5 Z"/></g>
<g><path style="opacity:1" fill="#f80202" d="M 187.5,178.5 C 187.167,178.5 186.833,178.5 186.5,178.5C 184.167,178.5 181.833,178.5 179.5,178.5C 179.5,179.5 179.5,180.5 179.5,181.5C 179.167,181.5 178.833,181.5 178.5,181.5C 174.812,181.781 171.145,182.281 167.5,183C 167.833,183.333 168.167,183.667 168.5,184C 166.563,184.122 165.23,184.955 164.5,186.5C 162.585,186.216 160.919,186.549 159.5,187.5C 158.022,187.762 156.689,187.429 155.5,186.5C 156.844,184.471 158.177,182.471 159.5,180.5C 164.804,179.274 169.471,176.774 173.5,173C 174.784,172.316 175.951,172.483 177,173.5C 179.358,171.976 181.191,169.976 182.5,167.5C 183.167,168.167 183.833,168.833 184.5,169.5C 185.333,168.5 186.167,167.5 187,166.5C 187.333,166.833 187.667,167.167 188,167.5C 189.171,166.107 190.671,165.273 192.5,165C 192.043,164.586 191.709,164.086 191.5,163.5C 193.845,161.595 196.512,160.429 199.5,160C 201.043,158.261 202.71,156.761 204.5,155.5C 207.167,155.167 209.833,154.833 212.5,154.5C 212.5,159.833 212.5,165.167 212.5,170.5C 207.68,171.918 202.68,172.918 197.5,173.5C 193.517,174.247 190.184,175.914 187.5,178.5 Z"/></g>
<g><path style="opacity:0.91" fill="#ee8881" d="M 339.5,162.5 C 341.262,163.262 342.262,164.596 342.5,166.5C 340.738,165.738 339.738,164.404 339.5,162.5 Z"/></g>
<g><path style="opacity:1" fill="#eb3325" d="M 204.5,155.5 C 202.71,156.761 201.043,158.261 199.5,160C 196.512,160.429 193.845,161.595 191.5,163.5C 191.709,164.086 192.043,164.586 192.5,165C 190.671,165.273 189.171,166.107 188,167.5C 187.667,167.167 187.333,166.833 187,166.5C 186.167,167.5 185.333,168.5 184.5,169.5C 183.833,168.833 183.167,168.167 182.5,167.5C 181.191,169.976 179.358,171.976 177,173.5C 175.951,172.483 174.784,172.316 173.5,173C 169.471,176.774 164.804,179.274 159.5,180.5C 173.137,169.845 188.137,161.512 204.5,155.5 Z"/></g>
<g><path style="opacity:1" fill="#ed3b2a" d="M 273.5,168.5 C 282.723,168.339 291.89,169.006 301,170.5C 303.5,170.333 306,170.167 308.5,170C 309.715,167.904 310.549,168.071 311,170.5C 312.049,169.483 313.216,169.316 314.5,170C 313.241,170.923 311.908,171.757 310.5,172.5C 310.863,173.183 311.196,173.85 311.5,174.5C 298.774,172.045 286.107,170.045 273.5,168.5 Z"/></g>
<g><path style="opacity:0.894" fill="#ec7c7a" d="M 343.5,168.5 C 344.906,168.973 345.573,169.973 345.5,171.5C 344.094,171.027 343.427,170.027 343.5,168.5 Z"/></g>
<g><path style="opacity:1" fill="#e34c41" d="M 312.5,174.5 C 315.247,174.187 317.914,174.52 320.5,175.5C 322.884,176.011 324.884,177.011 326.5,178.5C 321.57,177.741 316.903,176.408 312.5,174.5 Z"/></g>
<g><path style="opacity:1" fill="#e35140" d="M 345.5,171.5 C 347.664,173.822 349.331,176.489 350.5,179.5C 347.203,177.867 345.536,175.2 345.5,171.5 Z"/></g>
<g><path style="opacity:1" fill="#f35783" d="M 173.5,164.5 C 158.485,174.032 144.485,185.032 131.5,197.5C 131.64,195.876 130.973,194.71 129.5,194C 130.252,193.329 130.586,192.496 130.5,191.5C 132.414,190.815 134.414,190.315 136.5,190C 135.167,189.333 135.167,188.667 136.5,188C 137.793,187.51 139.127,187.343 140.5,187.5C 140.5,186.5 140.5,185.5 140.5,184.5C 141.833,184.5 143.167,184.5 144.5,184.5C 144.343,183.127 144.51,181.793 145,180.5C 146.011,181.337 147.178,181.67 148.5,181.5C 147.156,177.579 148.823,175.912 153.5,176.5C 153.238,175.022 153.571,173.689 154.5,172.5C 155.738,176.311 156.404,176.311 156.5,172.5C 157.833,172.5 159.167,172.5 160.5,172.5C 160.264,169.774 161.097,167.441 163,165.5C 163.807,169.449 164.307,169.449 164.5,165.5C 167.455,164.841 170.455,164.508 173.5,164.5 Z"/></g>
<g><path style="opacity:1" fill="#f06b61" d="M 186.5,178.5 C 184.351,179.736 182.018,180.736 179.5,181.5C 179.5,180.5 179.5,179.5 179.5,178.5C 181.833,178.5 184.167,178.5 186.5,178.5 Z"/></g>
<g><path style="opacity:1" fill="#019cde" d="M 259.5,178.5 C 272.039,178.769 284.706,179.936 297.5,182C 304.196,183.84 310.863,185.673 317.5,187.5C 317.833,187.833 318.167,188.167 318.5,188.5C 317.833,189.167 317.167,189.833 316.5,190.5C 306.47,191.703 296.803,194.036 287.5,197.5C 283.719,196.789 280.719,197.955 278.5,201C 272.071,203.02 265.738,205.187 259.5,207.5C 259.5,197.833 259.5,188.167 259.5,178.5 Z"/></g>
<g><path style="opacity:1" fill="#e64032" d="M 326.5,178.5 C 329.91,178.782 333.243,179.449 336.5,180.5C 337.446,180.013 338.446,179.68 339.5,179.5C 343.208,182.223 346.875,184.89 350.5,187.5C 342.409,184.488 334.409,181.488 326.5,178.5 Z"/></g>
<g><path style="opacity:1" fill="#ec614f" d="M 178.5,181.5 C 174.115,183.681 169.448,185.347 164.5,186.5C 165.23,184.955 166.563,184.122 168.5,184C 168.167,183.667 167.833,183.333 167.5,183C 171.145,182.281 174.812,181.781 178.5,181.5 Z"/></g>
<g><path style="opacity:1" fill="#ea6558" d="M 350.5,179.5 C 351.89,180.899 352.89,182.566 353.5,184.5C 351.241,183.656 350.241,181.989 350.5,179.5 Z"/></g>
<g><path style="opacity:1" fill="#54a2c7" d="M 314.5,181.5 C 322.504,183.555 330.504,185.722 338.5,188C 339.056,188.383 339.389,188.883 339.5,189.5C 336.146,188.49 332.813,188.49 329.5,189.5C 326.972,188.831 326.972,187.998 329.5,187C 324.049,185.801 319.049,183.967 314.5,181.5 Z"/></g>
<g><path style="opacity:1" fill="#eb2f23" d="M 159.5,180.5 C 158.177,182.471 156.844,184.471 155.5,186.5C 156.689,187.429 158.022,187.762 159.5,187.5C 157.289,188.111 155.622,189.444 154.5,191.5C 152.95,192.441 151.284,193.107 149.5,193.5C 148.325,193.719 147.325,193.386 146.5,192.5C 147.952,191.06 148.952,189.394 149.5,187.5C 152.475,184.677 155.808,182.344 159.5,180.5 Z"/></g>
<g><path style="opacity:1" fill="#eb6157" d="M 164.5,186.5 C 161.485,188.674 158.151,190.341 154.5,191.5C 155.622,189.444 157.289,188.111 159.5,187.5C 160.919,186.549 162.585,186.216 164.5,186.5 Z"/></g>
<g><path style="opacity:1" fill="#019cdf" d="M 213.5,183.5 C 212.275,190.817 212.275,198.151 213.5,205.5C 213.653,208.706 212.986,211.706 211.5,214.5C 183.412,227.693 159.745,246.359 140.5,270.5C 138.938,274.558 136.438,277.892 133,280.5C 132.027,282.392 131.36,284.392 131,286.5C 128.047,288.957 125.214,291.457 122.5,294C 123.38,295.356 123.714,296.856 123.5,298.5C 121.412,296.664 120.079,294.331 119.5,291.5C 116.546,282.105 113.712,273.438 111,265.5C 109.462,255.503 109.296,245.503 110.5,235.5C 109.833,234.167 109.167,232.833 108.5,231.5C 108.833,230.833 109.167,230.167 109.5,229.5C 118.561,224.603 127.228,219.103 135.5,213C 136.634,211.984 136.301,211.317 134.5,211C 137.232,210.587 139.899,209.92 142.5,209C 144.863,206.82 147.53,205.153 150.5,204C 164.487,197.747 178.82,192.247 193.5,187.5C 199.337,182.524 206.004,181.191 213.5,183.5 Z"/></g>
<g><path style="opacity:0.604" fill="#e57f84" d="M 353.5,184.5 C 354.931,185.78 355.598,187.447 355.5,189.5C 353.447,189.598 351.78,188.931 350.5,187.5C 351.5,187.5 352.5,187.5 353.5,187.5C 353.5,186.5 353.5,185.5 353.5,184.5 Z"/></g>
<g><path style="opacity:1" fill="#f43671" d="M 140.5,155.5 C 139.621,157.228 138.954,159.061 138.5,161C 139.332,163.478 139.499,165.978 139,168.5C 137.612,167.446 136.112,167.28 134.5,168C 134.102,171.66 132.102,173.494 128.5,173.5C 125.931,178.488 123.264,183.488 120.5,188.5C 120.626,191.356 121.96,193.356 124.5,194.5C 125.697,191.23 127.697,190.23 130.5,191.5C 130.586,192.496 130.252,193.329 129.5,194C 130.973,194.71 131.64,195.876 131.5,197.5C 130.694,198.728 129.694,199.728 128.5,200.5C 126.5,200.5 124.5,200.5 122.5,200.5C 122.5,201.833 122.5,203.167 122.5,204.5C 121.5,204.5 120.5,204.5 119.5,204.5C 119.5,206.167 119.5,207.833 119.5,209.5C 117.801,209.34 116.134,209.506 114.5,210C 115.756,210.417 116.423,211.25 116.5,212.5C 116.167,212.5 115.833,212.5 115.5,212.5C 114.5,212.5 113.5,212.5 112.5,212.5C 112.5,209.833 112.5,207.167 112.5,204.5C 117.573,188.593 125.073,173.927 135,160.5C 136.704,158.627 138.537,156.96 140.5,155.5 Z"/></g>
<g><path style="opacity:1" fill="#e05e54" d="M 149.5,187.5 C 148.952,189.394 147.952,191.06 146.5,192.5C 147.325,193.386 148.325,193.719 149.5,193.5C 146.692,195.439 143.692,197.272 140.5,199C 139.365,199.749 138.365,199.583 137.5,198.5C 141.494,194.84 145.494,191.173 149.5,187.5 Z"/></g>
<g><path style="opacity:1" fill="#0c8ac5" d="M 291.5,177.5 C 299.352,177.804 307.019,179.137 314.5,181.5C 319.049,183.967 324.049,185.801 329.5,187C 326.972,187.998 326.972,188.831 329.5,189.5C 332.813,188.49 336.146,188.49 339.5,189.5C 338.428,191.84 336.761,192.173 334.5,190.5C 333.692,190.808 333.025,191.308 332.5,192C 325.167,192.333 317.833,192.667 310.5,193C 304.458,195.801 298.125,197.968 291.5,199.5C 289.829,199.332 288.496,198.665 287.5,197.5C 296.803,194.036 306.47,191.703 316.5,190.5C 317.167,189.833 317.833,189.167 318.5,188.5C 318.167,188.167 317.833,187.833 317.5,187.5C 310.863,185.673 304.196,183.84 297.5,182C 284.706,179.936 272.039,178.769 259.5,178.5C 262.428,177.18 265.761,176.514 269.5,176.5C 274.787,176.355 279.954,177.021 285,178.5C 287.137,177.923 289.304,177.59 291.5,177.5 Z"/></g>
<g><path style="opacity:1" fill="#f7f064" d="M 346.5,197.5 C 350.311,196.355 354.311,196.188 358.5,197C 360.016,198.897 360.683,201.064 360.5,203.5C 359.399,202.152 358.399,200.652 357.5,199C 353.855,198.281 350.188,197.781 346.5,197.5 Z"/></g>
<g><path style="opacity:1" fill="#feef05" d="M 342.5,197.5 C 343.833,197.5 345.167,197.5 346.5,197.5C 350.188,197.781 353.855,198.281 357.5,199C 358.399,200.652 359.399,202.152 360.5,203.5C 359.908,209.105 360.741,214.439 363,219.5C 364.054,229.474 364.554,239.474 364.5,249.5C 327.881,254.82 291.881,262.82 256.5,273.5C 256.314,256.813 256.814,240.146 258,223.5C 258.717,222.956 259.217,222.289 259.5,221.5C 277.143,211.189 296.143,204.522 316.5,201.5C 324.173,200.833 331.84,200 339.5,199C 340.737,198.768 341.737,198.268 342.5,197.5 Z"/></g>
<g><path style="opacity:1" fill="#faef5f" d="M 342.5,197.5 C 341.737,198.268 340.737,198.768 339.5,199C 331.84,200 324.173,200.833 316.5,201.5C 324.9,199.274 333.566,197.941 342.5,197.5 Z"/></g>
<g><path style="opacity:1" fill="#f2688f" d="M 128.5,200.5 C 125.719,203.736 122.719,206.736 119.5,209.5C 119.5,207.833 119.5,206.167 119.5,204.5C 120.5,204.5 121.5,204.5 122.5,204.5C 122.5,203.167 122.5,201.833 122.5,200.5C 124.5,200.5 126.5,200.5 128.5,200.5 Z"/></g>
<g><path style="opacity:1" fill="#4299c9" d="M 291.5,177.5 C 289.304,177.59 287.137,177.923 285,178.5C 279.954,177.021 274.787,176.355 269.5,176.5C 265.761,176.514 262.428,177.18 259.5,178.5C 259.5,188.167 259.5,197.833 259.5,207.5C 265.738,205.187 272.071,203.02 278.5,201C 280.719,197.955 283.719,196.789 287.5,197.5C 288.496,198.665 289.829,199.332 291.5,199.5C 298.125,197.968 304.458,195.801 310.5,193C 317.833,192.667 325.167,192.333 332.5,192C 333.025,191.308 333.692,190.808 334.5,190.5C 336.761,192.173 338.428,191.84 339.5,189.5C 343.958,190.032 344.291,191.032 340.5,192.5C 311.239,194.484 283.572,202.151 257.5,215.5C 257.167,214.333 256.833,213.167 256.5,212C 257.398,199.746 257.898,187.579 258,175.5C 269.343,174.336 280.51,175.003 291.5,177.5 Z"/></g>
<g><path style="opacity:1" fill="#f98ca6" d="M 119.5,209.5 C 118.833,210.833 117.833,211.833 116.5,212.5C 116.423,211.25 115.756,210.417 114.5,210C 116.134,209.506 117.801,209.34 119.5,209.5 Z"/></g>
<g><path style="opacity:1" fill="#e96d90" d="M 112.5,204.5 C 112.5,207.167 112.5,209.833 112.5,212.5C 113.5,212.5 114.5,212.5 115.5,212.5C 114.292,215.044 112.292,216.378 109.5,216.5C 109.755,212.2 110.755,208.2 112.5,204.5 Z"/></g>
<g><path style="opacity:1" fill="#3992c2" d="M 212.5,244.5 C 213.38,240.633 213.38,236.8 212.5,233C 214.187,231.147 215.187,228.981 215.5,226.5C 214.883,212.012 214.216,197.679 213.5,183.5C 206.004,181.191 199.337,182.524 193.5,187.5C 178.82,192.247 164.487,197.747 150.5,204C 147.53,205.153 144.863,206.82 142.5,209C 139.899,209.92 137.232,210.587 134.5,211C 136.301,211.317 136.634,211.984 135.5,213C 127.228,219.103 118.561,224.603 109.5,229.5C 109.167,230.167 108.833,230.833 108.5,231.5C 109.167,232.833 109.833,234.167 110.5,235.5C 109.296,245.503 109.462,255.503 111,265.5C 113.712,273.438 116.546,282.105 119.5,291.5C 108.28,270.889 104.447,248.889 108,225.5C 139.863,200.99 175.697,185.324 215.5,178.5C 216.466,199.153 216.966,219.819 217,240.5C 215.629,242.041 214.129,243.375 212.5,244.5 Z"/></g>
<g><path style="opacity:1" fill="#f8f049" d="M 360.5,203.5 C 363.192,210.117 364.692,217.117 365,224.5C 365.5,232.827 365.666,241.16 365.5,249.5C 365.167,249.5 364.833,249.5 364.5,249.5C 364.554,239.474 364.054,229.474 363,219.5C 360.741,214.439 359.908,209.105 360.5,203.5 Z"/></g>
<g><path style="opacity:1" fill="#0f8ac5" d="M 213.5,183.5 C 214.216,197.679 214.883,212.012 215.5,226.5C 215.187,228.981 214.187,231.147 212.5,233C 213.38,236.8 213.38,240.633 212.5,244.5C 185.168,267.692 162.168,294.526 143.5,325C 142.833,325.667 142.167,325.667 141.5,325C 134.471,316.815 128.471,307.982 123.5,298.5C 123.714,296.856 123.38,295.356 122.5,294C 125.214,291.457 128.047,288.957 131,286.5C 131.36,284.392 132.027,282.392 133,280.5C 136.438,277.892 138.938,274.558 140.5,270.5C 159.745,246.359 183.412,227.693 211.5,214.5C 212.986,211.706 213.653,208.706 213.5,205.5C 212.275,198.151 212.275,190.817 213.5,183.5 Z"/></g>
<g><path style="opacity:1" fill="#56acd2" d="M 30.5,226.5 C 23.1707,225.24 15.8373,225.24 8.5,226.5C 8.91753,225.778 9.5842,225.278 10.5,225C 13.3333,224.833 16.1667,224.667 19,224.5C 23.1327,224.286 26.966,224.952 30.5,226.5 Z"/></g>
<g><path style="opacity:1" fill="#fcef16" d="M 466.5,227.5 C 466.833,227.5 467.167,227.5 467.5,227.5C 469.143,231.3 469.81,235.3 469.5,239.5C 468.817,241.176 467.483,241.843 465.5,241.5C 457.51,242.653 449.51,242.653 441.5,241.5C 428.973,238.684 416.306,236.684 403.5,235.5C 400.642,234.834 397.642,234.167 394.5,233.5C 396.291,232.83 397.958,232.163 399.5,231.5C 399.833,231.5 400.167,231.5 400.5,231.5C 408.063,231.772 415.397,231.105 422.5,229.5C 423.833,229.5 425.167,229.5 426.5,229.5C 433.074,228.719 439.574,228.719 446,229.5C 448.641,226.689 451.975,225.356 456,225.5C 459.527,226.091 463.027,226.758 466.5,227.5 Z"/></g>
<g><path style="opacity:1" fill="#faf059" d="M 466.5,227.5 C 463.027,226.758 459.527,226.091 456,225.5C 451.975,225.356 448.641,226.689 446,229.5C 439.574,228.719 433.074,228.719 426.5,229.5C 435.66,227.552 444.994,225.885 454.5,224.5C 458.979,224.086 462.979,225.086 466.5,227.5 Z"/></g>
<g><path style="opacity:1" fill="#0b9dde" d="M 30.5,226.5 C 30.8333,226.5 31.1667,226.5 31.5,226.5C 34.0225,227.851 36.6892,229.017 39.5,230C 49.8199,231.466 60.1532,232.799 70.5,234C 62.8051,234.357 55.1384,235.024 47.5,236C 44.3337,236.322 41.667,237.489 39.5,239.5C 31.9285,239.914 24.4285,240.914 17,242.5C 13.4774,242.293 9.97739,241.96 6.5,241.5C 3.29643,240.622 1.62977,238.455 1.5,235C 1.86059,230.402 4.19392,227.568 8.5,226.5C 15.8373,225.24 23.1707,225.24 30.5,226.5 Z"/></g>
<g><path style="opacity:1" fill="#f8f274" d="M 422.5,229.5 C 415.397,231.105 408.063,231.772 400.5,231.5C 407.646,230.384 414.98,229.717 422.5,229.5 Z"/></g>
<g><path style="opacity:0.992" fill="#52acd8" d="M 31.5,226.5 C 53.019,230.085 74.6856,232.419 96.5,233.5C 94.9412,235.131 92.9412,235.964 90.5,236C 73.4263,235.463 56.4263,236.63 39.5,239.5C 41.667,237.489 44.3337,236.322 47.5,236C 55.1384,235.024 62.8051,234.357 70.5,234C 60.1532,232.799 49.8199,231.466 39.5,230C 36.6892,229.017 34.0225,227.851 31.5,226.5 Z"/></g>
<g><path style="opacity:0.614" fill="#faf269" d="M 399.5,231.5 C 397.958,232.163 396.291,232.83 394.5,233.5C 397.642,234.167 400.642,234.834 403.5,235.5C 395.14,235.831 386.807,235.498 378.5,234.5C 379.025,233.808 379.692,233.308 380.5,233C 386.817,232.235 393.151,231.735 399.5,231.5 Z"/></g>
<g><path style="opacity:1" fill="#f9f268" d="M 467.5,227.5 C 470.042,229.248 471.376,231.748 471.5,235C 471.475,236.876 470.809,238.376 469.5,239.5C 469.81,235.3 469.143,231.3 467.5,227.5 Z"/></g>
<g><path style="opacity:1" fill="#5cb2db" d="M 39.5,239.5 C 32.6513,242.002 25.4846,243.669 18,244.5C 13.8875,244.076 10.0541,243.076 6.5,241.5C 9.97739,241.96 13.4774,242.293 17,242.5C 24.4285,240.914 31.9285,239.914 39.5,239.5 Z"/></g>
<g><path style="opacity:1" fill="#fbf575" d="M 441.5,241.5 C 449.51,242.653 457.51,242.653 465.5,241.5C 457.515,244.074 449.515,244.074 441.5,241.5 Z"/></g>
<g><path style="opacity:1" fill="#fdef0b" d="M 218.5,288.5 C 218.5,288.833 218.5,289.167 218.5,289.5C 208.116,293.355 197.783,297.521 187.5,302C 179.073,307.769 170.406,313.102 161.5,318C 159.655,319.128 157.655,319.628 155.5,319.5C 158.511,312.803 162.511,306.803 167.5,301.5C 169.327,299.868 171.161,298.201 173,296.5C 173.483,295.552 173.649,294.552 173.5,293.5C 176.573,291.431 178.906,288.764 180.5,285.5C 182.094,282.236 184.427,279.569 187.5,277.5C 195.701,269.966 203.701,261.966 211.5,253.5C 211.833,252.5 212.5,251.833 213.5,251.5C 214.583,251.461 215.583,251.127 216.5,250.5C 216.833,251.833 217.167,253.167 217.5,254.5C 218.41,265.812 218.744,277.146 218.5,288.5 Z"/></g>
<g><path style="opacity:1" fill="#fcbc02" d="M 364.5,249.5 C 362.65,254.94 361.65,260.606 361.5,266.5C 357.814,266.13 356.814,267.463 358.5,270.5C 356.43,270.449 354.597,271.115 353,272.5C 350.48,271.178 349.98,271.845 351.5,274.5C 350.609,275.59 349.609,275.59 348.5,274.5C 347.614,275.325 347.281,276.325 347.5,277.5C 346.5,277.5 345.5,277.5 344.5,277.5C 344.5,278.833 344.5,280.167 344.5,281.5C 344.167,281.5 343.833,281.5 343.5,281.5C 337.426,283.663 331.426,285.996 325.5,288.5C 325.5,289.5 325.5,290.5 325.5,291.5C 323.059,293.272 320.392,294.606 317.5,295.5C 313.753,295.392 310.086,295.892 306.5,297C 307.888,297.889 307.722,298.389 306,298.5C 305,298.167 304,297.833 303,297.5C 300.475,298.08 298.975,299.08 298.5,300.5C 297.558,300.392 296.725,300.059 296,299.5C 294.242,301.083 292.742,302.75 291.5,304.5C 286.36,304.701 281.36,305.701 276.5,307.5C 276.137,308.183 275.804,308.85 275.5,309.5C 275.167,309.5 274.833,309.5 274.5,309.5C 267.509,309.233 261.009,310.566 255,313.5C 253.403,312.115 251.57,311.449 249.5,311.5C 250.878,310.766 252.378,310.099 254,309.5C 254.46,297.495 254.96,285.495 255.5,273.5C 255.833,273.5 256.167,273.5 256.5,273.5C 291.881,262.82 327.881,254.82 364.5,249.5 Z"/></g>
<g><path style="opacity:1" fill="#f8ec41" d="M 259.5,221.5 C 259.217,222.289 258.717,222.956 258,223.5C 256.814,240.146 256.314,256.813 256.5,273.5C 256.167,273.5 255.833,273.5 255.5,273.5C 255.5,265.167 255.5,256.833 255.5,248.5C 255.299,239.792 255.799,231.125 257,222.5C 257.671,221.748 258.504,221.414 259.5,221.5 Z"/></g>
<g><path style="opacity:0.417" fill="#fcf671" d="M 219.5,288.5 C 219.167,288.5 218.833,288.5 218.5,288.5C 218.744,277.146 218.41,265.812 217.5,254.5C 217.167,253.167 216.833,251.833 216.5,250.5C 215.583,251.127 214.583,251.461 213.5,251.5C 214.401,249.273 216.067,248.273 218.5,248.5C 219.382,261.811 219.715,275.144 219.5,288.5 Z"/></g>
<g><path style="opacity:1" fill="#f7c94b" d="M 364.5,249.5 C 364.833,249.5 365.167,249.5 365.5,249.5C 365.838,256.142 364.671,262.475 362,268.5C 361.184,269.823 360.017,270.489 358.5,270.5C 356.814,267.463 357.814,266.13 361.5,266.5C 361.65,260.606 362.65,254.94 364.5,249.5 Z"/></g>
<g><path style="opacity:0.961" fill="#fdf470" d="M 211.5,253.5 C 203.701,261.966 195.701,269.966 187.5,277.5C 194.473,268.527 202.473,260.527 211.5,253.5 Z"/></g>
<g><path style="opacity:1" fill="#f8cb52" d="M 358.5,270.5 C 354.432,274.899 349.765,278.565 344.5,281.5C 344.5,280.167 344.5,278.833 344.5,277.5C 345.5,277.5 346.5,277.5 347.5,277.5C 347.281,276.325 347.614,275.325 348.5,274.5C 349.609,275.59 350.609,275.59 351.5,274.5C 349.98,271.845 350.48,271.178 353,272.5C 354.597,271.115 356.43,270.449 358.5,270.5 Z"/></g>
<g><path style="opacity:1" fill="#81bb4a" d="M 349.5,299.5 C 349.119,295.45 350.119,291.783 352.5,288.5C 352.167,287.833 351.833,287.167 351.5,286.5C 349.929,287.309 348.262,287.643 346.5,287.5C 350.187,284.5 354.187,281.834 358.5,279.5C 359.308,279.808 359.975,280.308 360.5,281C 356.933,287.313 353.266,293.479 349.5,299.5 Z"/></g>
<g><path style="opacity:0.937" fill="#fcf57a" d="M 180.5,285.5 C 178.906,288.764 176.573,291.431 173.5,293.5C 175.094,290.236 177.427,287.569 180.5,285.5 Z"/></g>
<g><path style="opacity:1" fill="#f8cc57" d="M 343.5,281.5 C 338.111,285.757 332.111,289.091 325.5,291.5C 325.5,290.5 325.5,289.5 325.5,288.5C 331.426,285.996 337.426,283.663 343.5,281.5 Z"/></g>
<g><path style="opacity:0.914" fill="#fdf574" d="M 173.5,293.5 C 173.649,294.552 173.483,295.552 173,296.5C 171.161,298.201 169.327,299.868 167.5,301.5C 168.529,298.109 170.529,295.443 173.5,293.5 Z"/></g>
<g><path style="opacity:1" fill="#f7c647" d="M 317.5,295.5 C 309.224,299.409 300.557,302.409 291.5,304.5C 292.742,302.75 294.242,301.083 296,299.5C 296.725,300.059 297.558,300.392 298.5,300.5C 298.975,299.08 300.475,298.08 303,297.5C 304,297.833 305,298.167 306,298.5C 307.722,298.389 307.888,297.889 306.5,297C 310.086,295.892 313.753,295.392 317.5,295.5 Z"/></g>
<g><path style="opacity:1" fill="#fcbb03" d="M 218.5,288.5 C 218.833,288.5 219.167,288.5 219.5,288.5C 219.5,290.167 219.5,291.833 219.5,293.5C 219.192,299.425 219.525,305.259 220.5,311C 230.161,311.5 239.828,311.666 249.5,311.5C 249.5,312.833 249.5,314.167 249.5,315.5C 244.826,315.667 240.159,316.001 235.5,316.5C 233.048,316.539 231.048,317.206 229.5,318.5C 222.578,318.812 215.744,318.479 209,317.5C 205.709,319.2 202.209,320.367 198.5,321C 191.983,321.314 185.483,321.814 179,322.5C 177.319,322.608 176.152,323.275 175.5,324.5C 175.167,324.5 174.833,324.5 174.5,324.5C 169.489,324.666 164.489,324.499 159.5,324C 158.027,323.29 157.36,322.124 157.5,320.5C 162.327,321.905 166.994,321.405 171.5,319C 168.833,317.667 168.833,316.333 171.5,315C 170.833,314.667 170.167,314.333 169.5,314C 177.264,310.952 184.598,307.118 191.5,302.5C 200.269,299.238 208.936,295.572 217.5,291.5C 218.298,291.043 218.631,290.376 218.5,289.5C 218.5,289.167 218.5,288.833 218.5,288.5 Z"/></g>
<g><path style="opacity:1" fill="#82bf4e" d="M 349.5,299.5 C 346.656,304.522 343.323,309.189 339.5,313.5C 339.014,310.245 340.014,307.578 342.5,305.5C 341.319,303.802 341.319,302.135 342.5,300.5C 343.167,300.833 343.833,301.167 344.5,301.5C 345.85,300.05 347.516,299.383 349.5,299.5 Z"/></g>
<g><path style="opacity:0.725" fill="#f8da74" d="M 255.5,248.5 C 255.5,256.833 255.5,265.167 255.5,273.5C 254.96,285.495 254.46,297.495 254,309.5C 252.378,310.099 250.878,310.766 249.5,311.5C 239.828,311.666 230.161,311.5 220.5,311C 219.525,305.259 219.192,299.425 219.5,293.5C 220.187,298.9 220.854,304.4 221.5,310C 232.11,310.778 242.61,310.278 253,308.5C 253.693,288.334 254.526,268.334 255.5,248.5 Z"/></g>
<g><path style="opacity:1" fill="#64b51b" d="M 349.5,299.5 C 347.516,299.383 345.85,300.05 344.5,301.5C 343.833,301.167 343.167,300.833 342.5,300.5C 341.319,302.135 341.319,303.802 342.5,305.5C 340.014,307.578 339.014,310.245 339.5,313.5C 338.292,312.766 336.959,312.433 335.5,312.5C 335.326,314.861 334.993,317.194 334.5,319.5C 333.5,319.5 332.5,319.5 331.5,319.5C 331.5,320.5 331.5,321.5 331.5,322.5C 330.5,322.5 329.5,322.5 328.5,322.5C 328.66,324.199 328.494,325.866 328,327.5C 326.506,326.253 325.006,326.253 323.5,327.5C 323.846,328.696 324.346,328.696 325,327.5C 325.494,329.134 325.66,330.801 325.5,332.5C 324.5,332.5 323.5,332.5 322.5,332.5C 322.719,333.675 322.386,334.675 321.5,335.5C 320.305,337.297 318.638,338.297 316.5,338.5C 316.5,340.167 316.5,341.833 316.5,343.5C 316.5,344.167 316.167,344.5 315.5,344.5C 313.516,345.694 311.516,345.694 309.5,344.5C 310.609,342.786 309.942,342.119 307.5,342.5C 307.579,343.93 307.246,345.264 306.5,346.5C 307.603,346.998 308.603,347.331 309.5,347.5C 309.023,348.931 308.357,350.264 307.5,351.5C 306.808,350.975 306.308,350.308 306,349.5C 304.869,352.445 304.036,355.445 303.5,358.5C 302.127,358.343 300.793,358.51 299.5,359C 300.022,359.561 300.355,360.228 300.5,361C 299.129,363.319 298.462,365.819 298.5,368.5C 296.338,368.897 295.005,370.231 294.5,372.5C 293.325,371.145 292.325,371.312 291.5,373C 292.097,374.062 292.43,375.228 292.5,376.5C 290.396,380.581 289.396,384.914 289.5,389.5C 289.737,390.791 289.404,391.791 288.5,392.5C 287.883,392.611 287.383,392.944 287,393.5C 286.591,397.297 285.758,400.964 284.5,404.5C 281.5,404.5 278.5,404.5 275.5,404.5C 275.657,403.127 275.49,401.793 275,400.5C 246.64,400.746 217.807,401.412 188.5,402.5C 188.34,400.801 188.506,399.134 189,397.5C 189.388,398.428 190.055,399.095 191,399.5C 207.116,398.389 221.45,398.389 234,399.5C 238.893,398.028 243.393,395.695 247.5,392.5C 246.833,392.167 246.167,391.833 245.5,391.5C 242.893,392.137 240.56,393.304 238.5,395C 233.499,395.251 228.499,395.084 223.5,394.5C 223.5,393.5 223.5,392.5 223.5,391.5C 225.06,391.481 226.56,391.148 228,390.5C 231.069,393.096 234.569,393.929 238.5,393C 239.731,391.817 239.731,390.651 238.5,389.5C 233.712,389.371 228.879,389.704 224,390.5C 223.5,390.167 223,389.833 222.5,389.5C 223.246,388.264 223.579,386.93 223.5,385.5C 229.737,387.173 236.07,387.673 242.5,387C 243.252,386.329 243.586,385.496 243.5,384.5C 246.034,384.741 247.7,383.741 248.5,381.5C 251.226,381.736 253.559,380.903 255.5,379C 265.038,369.342 267.038,358.509 261.5,346.5C 261.538,343.819 260.871,341.319 259.5,339C 257.334,336.664 255.334,334.164 253.5,331.5C 249.313,329.935 244.98,329.268 240.5,329.5C 240.167,329.5 239.833,329.5 239.5,329.5C 236.023,328.677 232.356,328.177 228.5,328C 233.534,326.326 238.534,324.826 243.5,323.5C 253.523,321.592 263.523,319.592 273.5,317.5C 277.853,317.235 282.187,316.735 286.5,316C 288.972,314.022 291.639,312.522 294.5,311.5C 301.835,311.171 308.501,309.004 314.5,305C 319.497,304.493 323.497,302.327 326.5,298.5C 333.159,294.837 339.826,291.17 346.5,287.5C 348.262,287.643 349.929,287.309 351.5,286.5C 351.833,287.167 352.167,287.833 352.5,288.5C 350.119,291.783 349.119,295.45 349.5,299.5 Z"/></g>
<g><path style="opacity:1" fill="#f8c30d" d="M 218.5,289.5 C 218.631,290.376 218.298,291.043 217.5,291.5C 208.936,295.572 200.269,299.238 191.5,302.5C 184.598,307.118 177.264,310.952 169.5,314C 170.167,314.333 170.833,314.667 171.5,315C 168.833,316.333 168.833,317.667 171.5,319C 166.994,321.405 162.327,321.905 157.5,320.5C 157.36,322.124 158.027,323.29 159.5,324C 164.489,324.499 169.489,324.666 174.5,324.5C 170.702,325.483 166.702,325.817 162.5,325.5C 158.671,326.069 155.337,325.402 152.5,323.5C 152.738,321.596 153.738,320.262 155.5,319.5C 157.655,319.628 159.655,319.128 161.5,318C 170.406,313.102 179.073,307.769 187.5,302C 197.783,297.521 208.116,293.355 218.5,289.5 Z"/></g>
<g><path style="opacity:1" fill="#f7cc5a" d="M 291.5,304.5 C 286.634,307.342 281.301,309.009 275.5,309.5C 275.804,308.85 276.137,308.183 276.5,307.5C 281.36,305.701 286.36,304.701 291.5,304.5 Z"/></g>
<g><path style="opacity:1" fill="#86bc52" d="M 326.5,298.5 C 323.497,302.327 319.497,304.493 314.5,305C 308.501,309.004 301.835,311.171 294.5,311.5C 305.129,307.189 315.796,302.856 326.5,298.5 Z"/></g>
<g><path style="opacity:1" fill="#f6c84b" d="M 274.5,309.5 C 266.465,312.258 258.132,314.258 249.5,315.5C 249.5,314.167 249.5,312.833 249.5,311.5C 251.57,311.449 253.403,312.115 255,313.5C 261.009,310.566 267.509,309.233 274.5,309.5 Z"/></g>
<g><path style="opacity:1" fill="#8ac15c" d="M 294.5,311.5 C 291.639,312.522 288.972,314.022 286.5,316C 282.187,316.735 277.853,317.235 273.5,317.5C 280.29,315.13 287.29,313.13 294.5,311.5 Z"/></g>
<g><path style="opacity:1" fill="#f6d268" d="M 249.5,315.5 C 243.087,317.305 236.421,318.305 229.5,318.5C 231.048,317.206 233.048,316.539 235.5,316.5C 240.159,316.001 244.826,315.667 249.5,315.5 Z"/></g>
<g><path style="opacity:1" fill="#f7cb51" d="M 229.5,318.5 C 211.71,321.062 193.71,323.062 175.5,324.5C 176.152,323.275 177.319,322.608 179,322.5C 185.483,321.814 191.983,321.314 198.5,321C 202.209,320.367 205.709,319.2 209,317.5C 215.744,318.479 222.578,318.812 229.5,318.5 Z"/></g>
<g><path style="opacity:0.959" fill="#f3da8a" d="M 152.5,323.5 C 155.337,325.402 158.671,326.069 162.5,325.5C 159.305,326.236 155.971,326.903 152.5,327.5C 149.86,326.127 149.86,324.794 152.5,323.5 Z"/></g>
<g><path style="opacity:1" fill="#81be4d" d="M 339.5,313.5 C 335.598,320.401 330.931,326.734 325.5,332.5C 325.66,330.801 325.494,329.134 325,327.5C 324.346,328.696 323.846,328.696 323.5,327.5C 325.006,326.253 326.506,326.253 328,327.5C 328.494,325.866 328.66,324.199 328.5,322.5C 329.5,322.5 330.5,322.5 331.5,322.5C 331.5,321.5 331.5,320.5 331.5,319.5C 332.5,319.5 333.5,319.5 334.5,319.5C 334.993,317.194 335.326,314.861 335.5,312.5C 336.959,312.433 338.292,312.766 339.5,313.5 Z"/></g>
<g><path style="opacity:0.682" fill="#a5ce7f" d="M 162.5,332.5 C 158.647,333.166 154.647,333.833 150.5,334.5C 151.952,335.94 152.952,337.606 153.5,339.5C 150.636,337.977 148.969,335.643 148.5,332.5C 153.167,332.5 157.833,332.5 162.5,332.5 Z"/></g>
<g><path style="opacity:1" fill="#64b41b" d="M 210.5,350.5 C 210.5,354.5 210.5,358.5 210.5,362.5C 210.784,365.777 210.451,368.943 209.5,372C 213.016,373.59 216.35,375.423 219.5,377.5C 219.539,378.583 219.873,379.583 220.5,380.5C 222.624,381.458 224.624,382.625 226.5,384C 232.157,384.499 237.824,384.666 243.5,384.5C 243.586,385.496 243.252,386.329 242.5,387C 236.07,387.673 229.737,387.173 223.5,385.5C 223.579,386.93 223.246,388.264 222.5,389.5C 223,389.833 223.5,390.167 224,390.5C 228.879,389.704 233.712,389.371 238.5,389.5C 239.731,390.651 239.731,391.817 238.5,393C 234.569,393.929 231.069,393.096 228,390.5C 226.56,391.148 225.06,391.481 223.5,391.5C 223.5,392.5 223.5,393.5 223.5,394.5C 228.499,395.084 233.499,395.251 238.5,395C 240.56,393.304 242.893,392.137 245.5,391.5C 246.167,391.833 246.833,392.167 247.5,392.5C 243.393,395.695 238.893,398.028 234,399.5C 221.45,398.389 207.116,398.389 191,399.5C 190.055,399.095 189.388,398.428 189,397.5C 188.506,399.134 188.34,400.801 188.5,402.5C 217.807,401.412 246.64,400.746 275,400.5C 275.49,401.793 275.657,403.127 275.5,404.5C 246.167,404.5 216.833,404.5 187.5,404.5C 187.69,398.728 187.023,393.061 185.5,387.5C 183.707,382.184 181.04,377.518 177.5,373.5C 176.599,372.71 175.932,371.71 175.5,370.5C 175.192,365.204 172.859,361.204 168.5,358.5C 167.088,354.461 165.755,350.461 164.5,346.5C 163.022,346.762 161.689,346.429 160.5,345.5C 158.179,342.335 155.846,339.168 153.5,336C 154.167,335.667 154.833,335.333 155.5,335C 175.847,333.358 196.18,331.525 216.5,329.5C 220.125,326.981 223.791,326.981 227.5,329.5C 223.601,331.283 219.601,332.783 215.5,334C 215.034,335.299 215.034,336.799 215.5,338.5C 212.477,338.105 211.477,339.105 212.5,341.5C 210.74,344.212 210.073,347.212 210.5,350.5 Z"/></g>
<g><path style="opacity:1" fill="#83ba4c" d="M 240.5,329.5 C 244.98,329.268 249.313,329.935 253.5,331.5C 255.334,334.164 257.334,336.664 259.5,339C 260.871,341.319 261.538,343.819 261.5,346.5C 257.177,337.509 250.177,331.842 240.5,329.5 Z"/></g>
<g><path style="opacity:1" fill="#85bd50" d="M 243.5,323.5 C 238.534,324.826 233.534,326.326 228.5,328C 232.356,328.177 236.023,328.677 239.5,329.5C 224.976,330.051 215.31,337.051 210.5,350.5C 210.073,347.212 210.74,344.212 212.5,341.5C 211.477,339.105 212.477,338.105 215.5,338.5C 215.034,336.799 215.034,335.299 215.5,334C 219.601,332.783 223.601,331.283 227.5,329.5C 223.791,326.981 220.125,326.981 216.5,329.5C 196.18,331.525 175.847,333.358 155.5,335C 154.833,335.333 154.167,335.667 153.5,336C 155.846,339.168 158.179,342.335 160.5,345.5C 161.689,346.429 163.022,346.762 164.5,346.5C 165.755,350.461 167.088,354.461 168.5,358.5C 163.732,351.955 158.732,345.621 153.5,339.5C 152.952,337.606 151.952,335.94 150.5,334.5C 154.647,333.833 158.647,333.166 162.5,332.5C 189.609,330.435 216.609,327.435 243.5,323.5 Z"/></g>
<g><path style="opacity:1" fill="#8dbf5a" d="M 325.5,332.5 C 322.848,336.482 319.848,340.149 316.5,343.5C 316.5,341.833 316.5,340.167 316.5,338.5C 318.638,338.297 320.305,337.297 321.5,335.5C 322.386,334.675 322.719,333.675 322.5,332.5C 323.5,332.5 324.5,332.5 325.5,332.5 Z"/></g>
<g><path style="opacity:1" fill="#80bc46" d="M 315.5,344.5 C 309.339,352.157 303.672,360.157 298.5,368.5C 298.462,365.819 299.129,363.319 300.5,361C 300.355,360.228 300.022,359.561 299.5,359C 300.793,358.51 302.127,358.343 303.5,358.5C 304.036,355.445 304.869,352.445 306,349.5C 306.308,350.308 306.808,350.975 307.5,351.5C 308.357,350.264 309.023,348.931 309.5,347.5C 308.603,347.331 307.603,346.998 306.5,346.5C 307.246,345.264 307.579,343.93 307.5,342.5C 309.942,342.119 310.609,342.786 309.5,344.5C 311.516,345.694 313.516,345.694 315.5,344.5 Z"/></g>
<g><path style="opacity:1" fill="#8dbf5c" d="M 261.5,346.5 C 267.038,358.509 265.038,369.342 255.5,379C 253.559,380.903 251.226,381.736 248.5,381.5C 261.252,373.272 265.585,361.606 261.5,346.5 Z"/></g>
<g><path style="opacity:1" fill="#a3c57f" d="M 109.5,363.5 C 109.715,361.821 109.048,360.821 107.5,360.5C 112.271,356.231 116.938,351.731 121.5,347C 122.332,346.312 122.998,346.479 123.5,347.5C 119.154,353.175 114.488,358.508 109.5,363.5 Z"/></g>
<g><path style="opacity:0.635" fill="#bfd4a7" d="M 369.5,364.5 C 368.167,364.5 367.5,365.167 367.5,366.5C 363.509,362.009 359.343,357.676 355,353.5C 354.333,352.5 354.333,351.5 355,350.5C 359.675,355.342 364.509,360.009 369.5,364.5 Z"/></g>
<g><path style="opacity:1" fill="#97c66d" d="M 168.5,358.5 C 172.859,361.204 175.192,365.204 175.5,370.5C 173.182,366.535 170.848,362.535 168.5,358.5 Z"/></g>
<g><path style="opacity:1" fill="#8ec25d" d="M 107.5,360.5 C 109.048,360.821 109.715,361.821 109.5,363.5C 106.167,367.167 102.833,370.833 99.5,374.5C 99.762,373.022 99.4287,371.689 98.5,370.5C 96.5504,371.372 94.5504,372.039 92.5,372.5C 97.6468,368.75 102.647,364.75 107.5,360.5 Z"/></g>
<g><path style="opacity:1" fill="#8cc154" d="M 210.5,362.5 C 212.165,368.195 215.165,373.195 219.5,377.5C 216.35,375.423 213.016,373.59 209.5,372C 210.451,368.943 210.784,365.777 210.5,362.5 Z"/></g>
<g><path style="opacity:1" fill="#89bf56" d="M 298.5,368.5 C 295.197,375.432 292.197,382.432 289.5,389.5C 289.396,384.914 290.396,380.581 292.5,376.5C 292.43,375.228 292.097,374.062 291.5,373C 292.325,371.312 293.325,371.145 294.5,372.5C 295.005,370.231 296.338,368.897 298.5,368.5 Z"/></g>
<g><path style="opacity:1" fill="#97c66b" d="M 383.5,373.5 C 390.12,374.813 395.453,378.146 399.5,383.5C 394.568,379.87 389.235,377.203 383.5,375.5C 383.5,374.833 383.5,374.167 383.5,373.5 Z"/></g>
<g><path style="opacity:1" fill="#77b83b" d="M 369.5,364.5 C 374.21,367.565 378.877,370.565 383.5,373.5C 383.5,374.167 383.5,374.833 383.5,375.5C 381.766,377.322 380.766,379.655 380.5,382.5C 382.169,386.51 383.836,390.51 385.5,394.5C 384.206,393.71 383.039,392.71 382,391.5C 378.601,382.284 373.768,373.95 367.5,366.5C 367.5,365.167 368.167,364.5 369.5,364.5 Z"/></g>
<g><path style="opacity:1" fill="#67b522" d="M 99.5,374.5 C 96.5935,379.31 93.9269,384.31 91.5,389.5C 89.6233,389.9 88.1233,390.9 87,392.5C 86.5,392.333 86,392.167 85.5,392C 86.3808,390.207 85.7142,389.54 83.5,390C 83.0874,391.537 83.0874,393.204 83.5,395C 82.9019,396.301 81.9019,397.135 80.5,397.5C 78.2011,396.365 76.0344,395.032 74,393.5C 73.3333,390.833 73.3333,388.167 74,385.5C 76.9167,383.147 79.4167,380.48 81.5,377.5C 84.8016,375.277 88.4682,373.61 92.5,372.5C 94.5504,372.039 96.5504,371.372 98.5,370.5C 99.4287,371.689 99.762,373.022 99.5,374.5 Z"/></g>
<g><path style="opacity:1" fill="#9ecc70" d="M 219.5,377.5 C 228.381,383.853 238.048,385.187 248.5,381.5C 247.7,383.741 246.034,384.741 243.5,384.5C 237.824,384.666 232.157,384.499 226.5,384C 224.624,382.625 222.624,381.458 220.5,380.5C 219.873,379.583 219.539,378.583 219.5,377.5 Z"/></g>
<g><path style="opacity:1" fill="#8bbd59" d="M 81.5,377.5 C 79.4167,380.48 76.9167,383.147 74,385.5C 73.3333,388.167 73.3333,390.833 74,393.5C 76.0344,395.032 78.2011,396.365 80.5,397.5C 81.9019,397.135 82.9019,396.301 83.5,395C 83.0874,393.204 83.0874,391.537 83.5,390C 85.7142,389.54 86.3808,390.207 85.5,392C 86,392.167 86.5,392.333 87,392.5C 88.1233,390.9 89.6233,389.9 91.5,389.5C 87.5653,398.556 81.3986,400.556 73,395.5C 69.6274,386.578 72.4607,380.578 81.5,377.5 Z"/></g>
<g><path style="opacity:1" fill="#87be55" d="M 399.5,383.5 C 403.501,388.41 402.835,392.91 397.5,397C 394.5,397.667 391.5,397.667 388.5,397C 387.058,396.623 386.058,395.79 385.5,394.5C 389.112,395.511 392.779,395.678 396.5,395C 399.167,393.667 399.167,392.333 396.5,391C 397.793,390.51 399.127,390.343 400.5,390.5C 400.007,388.194 399.674,385.861 399.5,383.5 Z"/></g>
<g><path style="opacity:1" fill="#64b41b" d="M 383.5,375.5 C 389.235,377.203 394.568,379.87 399.5,383.5C 399.674,385.861 400.007,388.194 400.5,390.5C 399.127,390.343 397.793,390.51 396.5,391C 399.167,392.333 399.167,393.667 396.5,395C 392.779,395.678 389.112,395.511 385.5,394.5C 383.836,390.51 382.169,386.51 380.5,382.5C 380.766,379.655 381.766,377.322 383.5,375.5 Z"/></g>
<g><path style="opacity:0.983" fill="#7db64a" d="M 177.5,373.5 C 181.04,377.518 183.707,382.184 185.5,387.5C 187.023,393.061 187.69,398.728 187.5,404.5C 216.833,404.5 246.167,404.5 275.5,404.5C 278.5,404.5 281.5,404.5 284.5,404.5C 285.758,400.964 286.591,397.297 287,393.5C 287.383,392.944 287.883,392.611 288.5,392.5C 287.993,396.86 287.327,401.193 286.5,405.5C 253.167,405.5 219.833,405.5 186.5,405.5C 186.608,401.753 186.108,398.086 185,394.5C 183.05,387.274 180.55,380.274 177.5,373.5 Z"/></g>
<g><path style="opacity:1" fill="#161616" d="M 181.5,434.5 C 181.027,433.094 180.027,432.427 178.5,432.5C 173.185,423.28 175.518,416.78 185.5,413C 220.894,412.02 256.227,412.353 291.5,414C 297.879,419.1 299.046,425.267 295,432.5C 293.2,434.317 291.034,435.484 288.5,436C 254.167,436.667 219.833,436.667 185.5,436C 184.099,435.59 182.766,435.09 181.5,434.5 Z"/></g>
<g><path style="opacity:0.471" fill="#8b8b8b" d="M 178.5,432.5 C 180.027,432.427 181.027,433.094 181.5,434.5C 179.973,434.573 178.973,433.906 178.5,432.5 Z"/></g>
<g><path style="opacity:1" fill="#0d0d0d" d="M 184.5,443.5 C 219.835,443.333 255.168,443.5 290.5,444C 297.33,448.161 299.164,453.995 296,461.5C 294.457,463.378 292.624,464.878 290.5,466C 255.494,466.52 220.494,466.854 185.5,467C 176.375,464.25 173.542,458.417 177,449.5C 179.109,446.878 181.609,444.878 184.5,443.5 Z"/></g>
<g><path style="opacity:1" fill="#0b0b0b" d="M 217.5,520.5 C 217.027,519.094 216.027,518.427 214.5,518.5C 212.251,517.92 210.585,516.587 209.5,514.5C 209.144,512.81 208.144,511.81 206.5,511.5C 204.786,507.918 202.453,504.752 199.5,502C 193.303,499.535 186.969,497.535 180.5,496C 175.662,492.127 174.329,487.293 176.5,481.5C 178.262,480.738 179.262,479.404 179.5,477.5C 180.681,475.933 182.347,475.099 184.5,475C 219.167,474.333 253.833,474.333 288.5,475C 297.357,477.895 299.857,483.728 296,492.5C 294.229,493.304 292.729,494.471 291.5,496C 280.263,496.524 272.097,501.691 267,511.5C 258.89,521.094 248.556,524.761 236,522.5C 230.833,522.333 225.667,522.167 220.5,522C 219.473,521.487 218.473,520.987 217.5,520.5 Z"/></g>
<g><path style="opacity:0.859" fill="#848484" d="M 179.5,477.5 C 179.262,479.404 178.262,480.738 176.5,481.5C 176.738,479.596 177.738,478.262 179.5,477.5 Z"/></g>
<g><path style="opacity:0.573" fill="#848484" d="M 206.5,511.5 C 208.144,511.81 209.144,512.81 209.5,514.5C 207.856,514.19 206.856,513.19 206.5,511.5 Z"/></g>
<g><path style="opacity:0.451" fill="#939393" d="M 214.5,518.5 C 216.027,518.427 217.027,519.094 217.5,520.5C 215.973,520.573 214.973,519.906 214.5,518.5 Z"/></g>
</svg>
