<?xml version="1.0" encoding="UTF-8"?>
<!DOCTYPE svg PUBLIC "-//W3C//DTD SVG 1.1//EN" "http://www.w3.org/Graphics/SVG/1.1/DTD/svg11.dtd">
<svg xmlns="http://www.w3.org/2000/svg" version="1.1" width="2522px" height="1532px" style="shape-rendering:geometricPrecision; text-rendering:geometricPrecision; image-rendering:optimizeQuality; fill-rule:evenodd; clip-rule:evenodd" xmlns:xlink="http://www.w3.org/1999/xlink">
<g><path style="opacity:1" fill="#fefefe" d="M -0.5,-0.5 C 840.167,-0.5 1680.83,-0.5 2521.5,-0.5C 2521.5,510.167 2521.5,1020.83 2521.5,1531.5C 1680.83,1531.5 840.167,1531.5 -0.5,1531.5C -0.5,1020.83 -0.5,510.167 -0.5,-0.5 Z"/></g>
<g><path style="opacity:1" fill="#fb276d" d="M 1280.5,8.5 C 1301.46,9.62625 1312.12,20.7929 1312.5,42C 1311.69,50.3958 1309.86,58.5625 1307,66.5C 1299.56,80.711 1293.23,95.3777 1288,110.5C 1287.07,115.799 1286.4,121.133 1286,126.5C 1285.67,147.833 1285.33,169.167 1285,190.5C 1283.67,191.833 1282.33,191.833 1281,190.5C 1279.46,160.062 1276.79,129.729 1273,99.5C 1267.2,83.7662 1261.2,68.0996 1255,52.5C 1249.52,29.522 1258.02,14.8554 1280.5,8.5 Z"/></g>
<g><path style="opacity:1" fill="#fb286d" d="M 928.5,163.5 C 932.273,163.263 935.94,163.763 939.5,165C 945.403,168.694 950.569,173.194 955,178.5C 964.068,200.323 976.402,219.99 992,237.5C 1001.02,247.017 1009.85,256.684 1018.5,266.5C 1017.83,266.833 1017.17,267.167 1016.5,267.5C 1014.73,266.909 1013.07,266.076 1011.5,265C 996.615,247.775 979.615,233.108 960.5,221C 950.711,216.606 941.045,211.939 931.5,207C 922.585,202.419 916.085,195.586 912,186.5C 910.999,179.503 913.166,173.67 918.5,169C 921.767,166.87 925.1,165.037 928.5,163.5 Z"/></g>
<g><path style="opacity:1" fill="#fa0b07" d="M 1628.5,163.5 C 1643.01,163.185 1650.51,170.185 1651,184.5C 1648.21,194.963 1642.04,202.796 1632.5,208C 1611.39,216.38 1592.39,228.046 1575.5,243C 1566.5,252 1557.5,261 1548.5,270C 1547.55,270.483 1546.55,270.649 1545.5,270.5C 1546.95,265.612 1549.45,261.279 1553,257.5C 1565.71,243.797 1578.04,229.797 1590,215.5C 1596.66,202.869 1603.33,190.202 1610,177.5C 1614.91,171.083 1621.07,166.416 1628.5,163.5 Z"/></g>
<g><path style="opacity:1" fill="#fb246b" d="M 1257.5,257.5 C 1330.79,253.232 1397.12,272.399 1456.5,315C 1334.93,293.085 1223.26,316.752 1121.5,386C 1079.53,416.612 1040.53,450.945 1004.5,489C 1002.7,490.505 1000.87,490.672 999,489.5C 1013.75,420.826 1048.25,364.326 1102.5,320C 1148.13,284.397 1199.79,263.564 1257.5,257.5 Z"/></g>
<g><path style="opacity:1" fill="#fa0704" d="M 1348.5,322.5 C 1388.94,321.126 1428.94,324.626 1468.5,333C 1473.67,334.207 1478.67,335.874 1483.5,338C 1495.1,348.261 1505.26,359.761 1514,372.5C 1526.38,390.561 1537.54,409.394 1547.5,429C 1547.17,429.5 1546.83,430 1546.5,430.5C 1495.56,407.245 1442.23,392.412 1386.5,386C 1368.55,383.885 1350.55,382.385 1332.5,381.5C 1332.3,373.476 1332.63,365.476 1333.5,357.5C 1334.02,354.185 1332.68,352.018 1329.5,351C 1298.82,350.222 1268.15,350.556 1237.5,352C 1234,352.833 1231.83,355 1231,358.5C 1230.43,367.383 1230.93,376.216 1232.5,385C 1232.46,386.764 1232.12,388.431 1231.5,390C 1172.63,402.177 1116.96,422.843 1064.5,452C 1063.17,452.667 1061.83,452.667 1060.5,452C 1140.98,374.935 1236.98,331.769 1348.5,322.5 Z"/></g>
<g><path style="opacity:1" fill="#0f8bc6" d="M 1329.5,472.5 C 1357.91,462.64 1386.25,452.473 1414.5,442C 1430.53,437.615 1446.86,435.282 1463.5,435C 1467.33,428.449 1465.33,424.782 1457.5,424C 1415.97,412.367 1373.64,406.534 1330.5,406.5C 1329.22,403.998 1329.22,401.498 1330.5,399C 1395.64,398.362 1458.64,409.695 1519.5,433C 1520.34,434.011 1520.67,435.178 1520.5,436.5C 1452.84,439.749 1388.84,456.749 1328.5,487.5C 1327.91,487.291 1327.41,486.957 1327,486.5C 1326.04,481.487 1326.88,476.821 1329.5,472.5 Z"/></g>
<g><path style="opacity:1" fill="#029ddf" d="M 1330.5,406.5 C 1373.64,406.534 1415.97,412.367 1457.5,424C 1465.33,424.782 1467.33,428.449 1463.5,435C 1446.86,435.282 1430.53,437.615 1414.5,442C 1386.25,452.473 1357.91,462.64 1329.5,472.5C 1329.29,450.487 1329.62,428.487 1330.5,406.5 Z"/></g>
<g><path style="opacity:1" fill="#0589c5" d="M 1222.5,407.5 C 1226.44,407.207 1230.27,407.54 1234,408.5C 1235.83,452.877 1237.5,497.21 1239,541.5C 1237.21,544.295 1235.04,546.795 1232.5,549C 1169.84,600.975 1117.34,661.475 1075,730.5C 1073.98,731.687 1072.81,732.687 1071.5,733.5C 1034.68,693.867 1009.84,647.534 997,594.5C 992.367,567.963 991.367,541.297 994,514.5C 1041.41,477.034 1093.91,448.201 1151.5,428C 1174.97,420.053 1198.64,413.219 1222.5,407.5 Z"/></g>
<g><path style="opacity:1" fill="#009cdf" d="M 1218.5,417.5 C 1221.85,417.335 1225.18,417.502 1228.5,418C 1229.85,419.574 1230.51,421.407 1230.5,423.5C 1229.18,428.617 1228.18,433.784 1227.5,439C 1229.38,448.922 1230.71,458.922 1231.5,469C 1231.83,474.518 1230.66,479.685 1228,484.5C 1147.19,522.974 1083.86,580.64 1038,657.5C 1035.53,661.013 1032.37,663.179 1028.5,664C 1020.07,641.72 1012.24,619.22 1005,596.5C 1002.77,580.649 1000.61,564.816 998.5,549C 998.724,539.042 999.891,529.208 1002,519.5C 1066.7,470.078 1138.87,436.078 1218.5,417.5 Z"/></g>
<g><path style="opacity:1" fill="#fff002" d="M 1570.5,566.5 C 1558.77,566.406 1547.1,567.24 1535.5,569C 1466.85,581.218 1399.18,597.551 1332.5,618C 1329.52,618.498 1326.52,618.665 1323.5,618.5C 1323.12,581.785 1324.28,545.118 1327,508.5C 1327.25,507.376 1327.75,506.376 1328.5,505.5C 1382.31,475.457 1439.98,457.29 1501.5,451C 1516.64,449.203 1531.81,447.703 1547,446.5C 1550.86,446.595 1553.86,448.262 1556,451.5C 1568.13,488.871 1572.96,527.205 1570.5,566.5 Z"/></g>
<g><path style="opacity:1" fill="#0c9ee0" d="M 783.5,509.5 C 790.841,509.334 798.174,509.5 805.5,510C 826.64,515.028 847.974,519.028 869.5,522C 901.774,524.923 934.107,526.923 966.5,528C 967.022,528.561 967.355,529.228 967.5,530C 966.318,531.735 964.651,532.735 962.5,533C 940.833,533.333 919.167,533.667 897.5,534C 868.804,535.739 840.804,541.073 813.5,550C 802.206,551.492 790.872,551.826 779.5,551C 771.205,550.27 764.372,546.77 759,540.5C 755.554,530.548 758.054,522.382 766.5,516C 771.852,512.756 777.519,510.59 783.5,509.5 Z"/></g>
<g><path style="opacity:1" fill="#fff010" d="M 1764.5,509.5 C 1776.58,508.921 1787.91,511.421 1798.5,517C 1807.27,524.539 1808.77,533.372 1803,543.5C 1796.38,547.261 1789.21,549.427 1781.5,550C 1772.5,550.667 1763.5,550.667 1754.5,550C 1735.42,546.385 1716.42,542.385 1697.5,538C 1690.2,536.72 1682.87,535.72 1675.5,535C 1650.52,533.417 1625.52,532.25 1600.5,531.5C 1600.71,530.914 1601.04,530.414 1601.5,530C 1610.11,528.294 1618.78,526.961 1627.5,526C 1657.82,523.525 1688.16,521.191 1718.5,519C 1733.9,515.476 1749.24,512.309 1764.5,509.5 Z"/></g>
<g><path style="opacity:1" fill="#fff006" d="M 1243.5,653.5 C 1196.57,670.129 1152.57,692.296 1111.5,720C 1107.58,721.479 1103.58,722.646 1099.5,723.5C 1104.89,713.059 1111.06,703.059 1118,693.5C 1150.45,649.032 1187.28,608.199 1228.5,571C 1231.82,568.006 1235.49,565.506 1239.5,563.5C 1240.09,563.709 1240.59,564.043 1241,564.5C 1242.3,594.154 1243.13,623.821 1243.5,653.5 Z"/></g>
<g><path style="opacity:1" fill="#fdbc02" d="M 1570.5,566.5 C 1569.69,576.605 1568.19,586.605 1566,596.5C 1564.37,602.93 1560.87,608.097 1555.5,612C 1517.58,641.135 1475.91,663.802 1430.5,680C 1373.92,699.646 1315.92,713.312 1256.5,721C 1203.32,726.38 1150.15,731.88 1097,737.5C 1094.83,737.167 1092.67,736.833 1090.5,736.5C 1092.39,731.298 1095.39,726.964 1099.5,723.5C 1103.58,722.646 1107.58,721.479 1111.5,720C 1152.57,692.296 1196.57,670.129 1243.5,653.5C 1243.85,668.503 1244.35,683.503 1245,698.5C 1245.47,699.931 1246.3,701.097 1247.5,702C 1270.83,701.792 1294.17,701.125 1317.5,700C 1318,699.5 1318.5,699 1319,698.5C 1320.57,671.83 1322.07,645.163 1323.5,618.5C 1326.52,618.665 1329.52,618.498 1332.5,618C 1399.18,597.551 1466.85,581.218 1535.5,569C 1547.1,567.24 1558.77,566.406 1570.5,566.5 Z"/></g>
<g><path style="opacity:1" fill="#63b51a" d="M 1553.5,633.5 C 1554.5,633.5 1555.5,633.5 1556.5,633.5C 1556.66,634.873 1556.49,636.207 1556,637.5C 1536.48,674.328 1513.81,708.995 1488,741.5C 1474.38,758.791 1460.38,775.791 1446,792.5C 1417.42,828.195 1399.26,868.695 1391.5,914C 1318.83,914.667 1246.17,914.667 1173.5,914C 1166.04,873.242 1150.2,836.076 1126,802.5C 1114.13,786.286 1101.13,770.953 1087,756.5C 1086.51,755.207 1086.34,753.873 1086.5,752.5C 1180.91,749.029 1274.24,737.196 1366.5,717C 1434.2,700.469 1496.53,672.635 1553.5,633.5 Z"/></g>
<g><path style="opacity:1" fill="#fefefd" d="M 1273.5,743.5 C 1311.19,742.69 1334.02,760.69 1342,797.5C 1343.91,829.206 1330.41,851.373 1301.5,864C 1265.19,872.594 1239.69,859.761 1225,825.5C 1216.81,794.744 1225.64,770.244 1251.5,752C 1258.61,748.248 1265.94,745.415 1273.5,743.5 Z"/></g>
<g><path style="opacity:1" fill="#66b61e" d="M 1026.5,783.5 C 1027.24,783.369 1027.91,783.536 1028.5,784C 1016.07,799.098 1002.91,813.598 989,827.5C 974.317,844.181 962.651,862.848 954,883.5C 947.634,893.767 938.467,898.267 926.5,897C 909.394,886.479 908.061,874.146 922.5,860C 932.214,851.975 943.214,846.309 955.5,843C 968.28,836.219 979.947,827.885 990.5,818C 1002.09,805.904 1014.09,794.404 1026.5,783.5 Z"/></g>
<g><path style="opacity:1" fill="#65b61e" d="M 1546.5,794.5 C 1546.9,793.475 1547.56,793.308 1548.5,794C 1560.97,807.813 1574.64,820.147 1589.5,831C 1604.75,840.127 1620.42,848.46 1636.5,856C 1642.08,860.907 1646.91,866.407 1651,872.5C 1651.01,891.241 1641.85,898.741 1623.5,895C 1615.19,890.569 1609.03,884.069 1605,875.5C 1596.17,853.828 1583.84,834.494 1568,817.5C 1560.97,809.636 1553.8,801.969 1546.5,794.5 Z"/></g>
<g><path style="opacity:1" fill="#000000" d="M 1163.5,932.5 C 1241.83,932.333 1320.17,932.5 1398.5,933C 1412.63,937.744 1418.8,947.577 1417,962.5C 1414.46,972.369 1408.3,978.535 1398.5,981C 1320.17,981.667 1241.83,981.667 1163.5,981C 1150.87,975.253 1145.37,965.42 1147,951.5C 1149.73,942.681 1155.23,936.347 1163.5,932.5 Z"/></g>
<g><path style="opacity:1" fill="#010101" d="M 1166.5,1000.5 C 1244.5,1000.33 1322.5,1000.5 1400.5,1001C 1417.07,1009.05 1421.57,1021.55 1414,1038.5C 1409.8,1044.68 1403.96,1048.52 1396.5,1050C 1319.17,1050.67 1241.83,1050.67 1164.5,1050C 1149.09,1043.79 1143.59,1032.62 1148,1016.5C 1151.6,1008.06 1157.77,1002.72 1166.5,1000.5 Z"/></g>
<g><path style="opacity:1" fill="#010101" d="M 1167.5,1069.5 C 1244.17,1069.33 1320.83,1069.5 1397.5,1070C 1416.22,1076.26 1421.72,1088.43 1414,1106.5C 1411.13,1109.7 1407.96,1112.54 1404.5,1115C 1395.95,1117.71 1387.28,1120.04 1378.5,1122C 1369.85,1125.91 1362.35,1131.41 1356,1138.5C 1351.91,1145.01 1347.58,1151.34 1343,1157.5C 1332.26,1168.61 1319.1,1174.45 1303.5,1175C 1287.17,1175.67 1270.83,1175.67 1254.5,1175C 1239.1,1172.88 1226.6,1165.72 1217,1153.5C 1213,1146.83 1209,1140.17 1205,1133.5C 1202.5,1131.67 1200,1129.83 1197.5,1128C 1185.33,1123.87 1172.99,1120.21 1160.5,1117C 1148.61,1110.71 1144.11,1100.88 1147,1087.5C 1150.65,1077.68 1157.48,1071.68 1167.5,1069.5 Z"/></g>
<g><path style="opacity:1" fill="#fb236b" d="M 1530.5,1234.5 C 1563.41,1234.17 1596.24,1234.5 1629,1235.5C 1660.01,1327.68 1690.51,1420.02 1720.5,1512.5C 1694.5,1512.5 1668.5,1512.5 1642.5,1512.5C 1637.99,1494.8 1633.33,1477.14 1628.5,1459.5C 1596.83,1458.17 1565.17,1458.17 1533.5,1459.5C 1528.29,1477.12 1523.29,1494.79 1518.5,1512.5C 1492.83,1512.67 1467.16,1512.5 1441.5,1512C 1441.04,1511.59 1440.71,1511.09 1440.5,1510.5C 1470.71,1418.55 1500.71,1326.55 1530.5,1234.5 Z"/></g>
<g><path style="opacity:1" fill="#03c2ca" d="M 1784.5,1234.5 C 1821.17,1234.33 1857.83,1234.5 1894.5,1235C 1918.56,1235.84 1940.56,1242.84 1960.5,1256C 1978.48,1270.8 1987.15,1289.97 1986.5,1313.5C 1986.31,1347.56 1971.48,1372.89 1942,1389.5C 1941.33,1391.5 1941.33,1393.5 1942,1395.5C 1967,1432.83 1992,1470.17 2017,1507.5C 2018.01,1509.02 2018.51,1510.69 2018.5,1512.5C 1992.16,1512.67 1965.83,1512.5 1939.5,1512C 1921.21,1481.25 1903.04,1450.42 1885,1419.5C 1879.13,1409.63 1870.96,1406.8 1860.5,1411C 1859,1411.83 1857.83,1413 1857,1414.5C 1856.5,1447.16 1856.33,1479.83 1856.5,1512.5C 1832.5,1512.5 1808.5,1512.5 1784.5,1512.5C 1784.5,1419.83 1784.5,1327.17 1784.5,1234.5 Z"/></g>
<g><path style="opacity:1" fill="#fff001" d="M 2060.5,1234.5 C 2129.74,1234.17 2198.9,1234.5 2268,1235.5C 2268.83,1253.84 2268.67,1272.18 2267.5,1290.5C 2245.88,1291.83 2224.22,1292.66 2202.5,1293C 2202,1293.5 2201.5,1294 2201,1294.5C 2200.83,1366.87 2200.33,1439.21 2199.5,1511.5C 2175.93,1512.83 2152.43,1512.83 2129,1511.5C 2128.67,1439.17 2128.33,1366.83 2128,1294.5C 2127.5,1294 2127,1293.5 2126.5,1293C 2105.16,1292.51 2083.83,1291.85 2062.5,1291C 2062,1290.5 2061.5,1290 2061,1289.5C 2059.4,1271.11 2059.24,1252.78 2060.5,1234.5 Z"/></g>
<g><path style="opacity:1" fill="#63b519" d="M 2341.5,1234.5 C 2395.4,1234.17 2449.24,1234.5 2503,1235.5C 2503.83,1254.07 2503.66,1272.57 2502.5,1291C 2472.83,1291.33 2443.17,1291.67 2413.5,1292C 2412.84,1299.92 2412.51,1307.92 2412.5,1316C 2412.51,1324.08 2412.84,1332.08 2413.5,1340C 2441.07,1340.17 2468.57,1340.67 2496,1341.5C 2496.67,1359.5 2496.67,1377.5 2496,1395.5C 2468.56,1396.24 2441.06,1397.07 2413.5,1398C 2412.34,1416.09 2412.17,1434.26 2413,1452.5C 2413.5,1453 2414,1453.5 2414.5,1454C 2443.5,1454.33 2472.5,1454.67 2501.5,1455C 2502,1455.5 2502.5,1456 2503,1456.5C 2503.83,1475.07 2503.66,1493.57 2502.5,1512C 2448.6,1512.83 2394.76,1512.66 2341,1511.5C 2340.17,1419.1 2340.34,1326.76 2341.5,1234.5 Z"/></g>
<g><path style="opacity:1" fill="#26303a" d="M 1130.5,1239.5 C 1204.47,1322.98 1277.63,1407.31 1350,1492.5C 1353.22,1495.56 1355.22,1494.89 1356,1490.5C 1355.33,1409.5 1355.66,1328.5 1357,1247.5C 1360.57,1245.95 1363.9,1246.28 1367,1248.5C 1367.83,1340.84 1367.67,1433.17 1366.5,1525.5C 1295.87,1444.91 1225.7,1363.91 1156,1282.5C 1152.27,1278.77 1148.6,1275.1 1145,1271.5C 1144.23,1271.64 1143.56,1271.98 1143,1272.5C 1142.65,1353.84 1141.98,1435.17 1141,1516.5C 1137.67,1517.83 1134.33,1517.83 1131,1516.5C 1130.5,1424.17 1130.33,1331.83 1130.5,1239.5 Z"/></g>
<g><path style="opacity:1" fill="#262f39" d="M 941.5,1240.5 C 943.411,1240.57 944.578,1241.57 945,1243.5C 983.794,1334.75 1022.29,1426.08 1060.5,1517.5C 1057.15,1517.67 1053.82,1517.5 1050.5,1517C 1033.29,1478.72 1016.46,1440.22 1000,1401.5C 999.5,1401 999,1400.5 998.5,1400C 961.167,1399.33 923.833,1399.33 886.5,1400C 886,1400.5 885.5,1401 885,1401.5C 868.058,1439.72 851.392,1478.05 835,1516.5C 831.058,1519.57 827.891,1519.07 825.5,1515C 863.503,1423.17 902.17,1331.67 941.5,1240.5 Z"/></g>
<g><path style="opacity:1" fill="#060606" d="M 19.5,1246.5 C 43.8356,1246.33 68.1689,1246.5 92.5,1247C 155.385,1258.01 194.218,1294.51 209,1356.5C 217.005,1414.62 197.505,1460.79 150.5,1495C 134.466,1505.02 117.133,1511.68 98.5,1515C 72.1947,1516.41 45.8614,1516.91 19.5,1516.5C 19.5,1426.5 19.5,1336.5 19.5,1246.5 Z"/></g>
<g><path style="opacity:1" fill="#040404" d="M 280.5,1246.5 C 343.261,1245.81 405.928,1247.81 468.5,1252.5C 408.931,1254.34 349.431,1256.34 290,1258.5C 289.333,1295.83 289.333,1333.17 290,1370.5C 290.309,1371.77 290.809,1372.93 291.5,1374C 326.415,1375.51 361.415,1376.51 396.5,1377C 404.509,1377.56 412.509,1378.23 420.5,1379C 423.346,1379.88 424.013,1381.55 422.5,1384C 378.84,1385.06 335.173,1385.73 291.5,1386C 291,1386.5 290.5,1387 290,1387.5C 289.833,1406.83 289.667,1426.17 289.5,1445.5C 289.344,1465.59 289.844,1485.59 291,1505.5C 291.5,1506 292,1506.5 292.5,1507C 342.833,1507.33 393.167,1507.67 443.5,1508C 445.013,1510.92 444.68,1513.58 442.5,1516C 415.251,1517.16 387.918,1517.66 360.5,1517.5C 333.596,1517.5 306.762,1517.16 280,1516.5C 279.17,1426.43 279.336,1336.43 280.5,1246.5 Z"/></g>
<g><path style="opacity:1" fill="#070707" d="M 673.5,1245.5 C 699.506,1243.83 722.84,1250.83 743.5,1266.5C 744.935,1271.81 742.935,1274.31 737.5,1274C 722.352,1262.78 705.352,1256.62 686.5,1255.5C 646.534,1258.29 627.034,1279.63 628,1319.5C 629.86,1334.69 637.36,1346.19 650.5,1354C 659.544,1358.91 668.877,1363.24 678.5,1367C 697.337,1372.39 715.337,1379.72 732.5,1389C 765.686,1410.88 774.853,1440.38 760,1477.5C 746.662,1503.77 725.162,1517.94 695.5,1520C 665.996,1521.72 639.996,1513.05 617.5,1494C 614.238,1491.25 611.571,1488.08 609.5,1484.5C 610.602,1480.23 613.269,1478.73 617.5,1480C 632.036,1493.84 649.036,1503.51 668.5,1509C 690.835,1512.39 711.502,1508.06 730.5,1496C 752.146,1478.73 759.646,1456.56 753,1429.5C 748.151,1415.65 739.318,1405.15 726.5,1398C 721.167,1395.33 715.833,1392.67 710.5,1390C 690.181,1382.78 670.181,1374.78 650.5,1366C 623.561,1351.95 612.728,1329.79 618,1299.5C 624.229,1268.77 642.729,1250.77 673.5,1245.5 Z"/></g>
<g><path style="opacity:1" fill="#222c36" d="M 526.5,1246.5 C 529.448,1246.22 532.281,1246.56 535,1247.5C 535.667,1337.5 535.667,1427.5 535,1517.5C 532,1518.83 529,1518.83 526,1517.5C 525.17,1427.1 525.336,1336.76 526.5,1246.5 Z"/></g>
<g><path style="opacity:1" fill="#fefefe" d="M 31.5,1256.5 C 52.5263,1256.14 73.5263,1256.64 94.5,1258C 139.868,1266.38 172.035,1291.54 191,1333.5C 206.062,1375.68 201.729,1415.68 178,1453.5C 155.031,1484.58 124.198,1502.08 85.5,1506C 67.8333,1506.67 50.1667,1506.67 32.5,1506C 31.3333,1505.5 30.5,1504.67 30,1503.5C 29.3333,1421.83 29.3333,1340.17 30,1258.5C 30.7172,1257.96 31.2172,1257.29 31.5,1256.5 Z"/></g>
<g><path style="opacity:1" fill="#fdfdfd" d="M 940.5,1268.5 C 943.48,1268.24 945.313,1269.57 946,1272.5C 961.891,1310.62 978.058,1348.62 994.5,1386.5C 994.291,1387.09 993.957,1387.59 993.5,1388C 959.595,1388.83 925.762,1388.66 892,1387.5C 891.333,1386.5 891.333,1385.5 892,1384.5C 908.455,1345.93 924.622,1307.26 940.5,1268.5 Z"/></g>
<g><path style="opacity:1" fill="#fffcfd" d="M 1579.5,1281.5 C 1581.58,1281.62 1583.08,1282.62 1584,1284.5C 1593.33,1321.17 1602.67,1357.83 1612,1394.5C 1612.76,1396.77 1612.59,1398.94 1611.5,1401C 1591.17,1401.67 1570.83,1401.67 1550.5,1401C 1550,1400.5 1549.5,1400 1549,1399.5C 1557.84,1361.13 1567.17,1322.8 1577,1284.5C 1578.04,1283.63 1578.88,1282.63 1579.5,1281.5 Z"/></g>
<g><path style="opacity:1" fill="#fdfefe" d="M 1860.5,1287.5 C 1871.3,1286.93 1881.96,1287.77 1892.5,1290C 1911.47,1298.11 1918.64,1312.27 1914,1332.5C 1908.78,1346.7 1898.61,1354.53 1883.5,1356C 1875.83,1356.67 1868.17,1356.67 1860.5,1356C 1859.58,1355.63 1858.75,1355.13 1858,1354.5C 1856.36,1333.59 1856.02,1312.59 1857,1291.5C 1858.38,1290.29 1859.54,1288.96 1860.5,1287.5 Z"/></g>
</svg>
